<?xml version="1.0" encoding="utf-8"?>
<!-- Generator: Adobe Illustrator 16.0.0, SVG Export Plug-In . SVG Version: 6.00 Build 0)  -->
<!DOCTYPE svg PUBLIC "-//W3C//DTD SVG 1.1//EN" "http://www.w3.org/Graphics/SVG/1.1/DTD/svg11.dtd">
<svg version="1.1" id="Layer_1" xmlns="http://www.w3.org/2000/svg" xmlns:xlink="http://www.w3.org/1999/xlink" x="0px" y="0px"
	 width="400px" height="400px" viewBox="0 0 400 400" enable-background="new 0 0 400 400" xml:space="preserve">
<path fill="#F9F182" stroke="#000000" stroke-width="2" stroke-miterlimit="10" d="M254.194,48.989
	c-3.769,5.641,2.111,10.161,2,15.694c-0.099,4.934-4.398,8.337-9.268,6.119c-3.264-1.487-1.887-9.292-0.728-12.082
	c1.612-3.881,2.946-9.244,7.745-10.231L254.194,48.989z"/>
<path fill="#F1595A" d="M250.25,55.945c1.263,2.475,3.142,6.535,2.506,9.444c-1.115,5.105-6.768,2.87-5.967-1.674
	c0.854,0.348,1.491,1.001,1.917,1.849c0.118-1.817,0.522-3.188,0.925-4.848c0.383-1.583,0.037-3.6,0.869-5.021"/>
<path fill="#75B2D8" d="M250.869,58.841c0.903,2.022,2.246,5.339,1.792,7.715c-0.798,4.17-4.839,2.344-4.267-1.368
	c0.611,0.284,1.066,0.817,1.371,1.51c0.084-1.484,0.373-2.604,0.661-3.96c0.274-1.293,0.026-2.941,0.622-4.102"/>
<path fill="#F9F182" stroke="#000000" stroke-width="2" stroke-miterlimit="10" d="M211.97,57.125
	c-1.213,4.368-11.281,26.051,2.29,22.456c4.12-1.092,1.543-7.898,0.967-11.017c-0.365-1.983-0.734-3.874-1.201-5.841
	c-0.425-1.791-1.499-3.47-1.806-5.098L211.97,57.125z"/>
<path fill="#F1595A" d="M211.47,67.375c0.009,1.417,5.306,11.468,0.001,10.267c-3.412-0.772-2.233-8.955,0.499-10.267"/>
<path fill="#75B2D8" d="M211.869,70.228c0.007,1.058,3.908,8.559,0.001,7.663c-2.514-0.577-1.646-6.684,0.367-7.663"/>
<path fill="#F9F182" stroke="#000000" stroke-width="2" stroke-miterlimit="10" d="M178.945,44.432
	c-4.286,1.762-8.427,10.188-8.756,14.512c-0.317,4.167,3.703,9.804,8.518,8.744c4.822-1.063,2.281-9.013,1.17-12.062
	c-0.864-2.369-0.502-7.444-0.432-11.444L178.945,44.432z"/>
<path fill="#F1595A" d="M176.445,50.932c-0.573,1.503-2.261,2.737-2.762,4.251c-0.48,1.451-0.062,3.227-0.239,4.755
	c-0.185,1.585-0.766,2.203,0.113,3.688c0.67,1.133,2.75,2.275,4.082,1.818c2.951-1.012-0.39-4.849-0.957-7.007
	C176.089,56.185,176.445,53.299,176.445,50.932"/>
<path fill="#75B2D8" d="M176.167,55.737c-0.314,0.875-1.24,1.594-1.515,2.475c-0.264,0.844-0.034,1.878-0.131,2.768
	c-0.102,0.922-0.42,1.282,0.062,2.147c0.367,0.66,1.508,1.325,2.239,1.059c1.619-0.589-0.213-2.823-0.524-4.079
	C175.972,58.795,176.167,57.115,176.167,55.737"/>
<path fill="#F9F182" stroke="#000000" stroke-width="2" stroke-miterlimit="10" d="M141.294,55.844
	c3.769,5.641-2.111,10.161-2,15.694c0.099,4.934,4.399,8.337,9.268,6.119c3.263-1.487,1.886-9.292,0.727-12.082
	c-1.612-3.881-2.946-9.244-7.745-10.231L141.294,55.844z"/>
<path fill="#F1595A" d="M144.298,76.945c-2.738-0.165-4.033-3.827-3.397-5.991c0.411,0.716,1.853,1.625,2.191,1.998
	c0.299-2.466,0.384-5.788,1.901-7.937c0.274,1.795,1.285,3.799,1.988,5.545c0.931-0.618,1.721-1.591,2.269-2.721
	c-0.369,2.448-0.75,8.77-4.566,9.106"/>
<path fill="#74B2D8" d="M144.544,76.844c-1.772-0.116-2.611-2.702-2.199-4.23c0.266,0.505,1.199,1.147,1.418,1.41
	c0.194-1.741,0.249-4.086,1.231-5.604c0.178,1.267,0.832,2.682,1.287,3.915c0.603-0.437,1.114-1.124,1.469-1.921
	c-0.24,1.729-0.485,6.192-2.956,6.429"/>
<path fill="#A4DDE9" d="M206.988,95.61c-1.109-0.206-2.216-0.408-3.321-0.604c-4.975-0.882-10.105-1.001-15.259-1.001
	c-3.774,0-7.665-0.304-11.423-0.008c-3.728,0.294-7.288,1.639-11.021,1.637c-3.809-0.001-7.209-0.595-11.009,0.342
	c-6.659,1.641-13.056,4.173-19.547,6.354c-3.735,1.254-7.612,3.098-11.13,5c-5.11,2.763-8.347,6.236-12.631,9.892
	c-5.973,5.096-13.26,9.04-18.249,15.219c-3.69,4.572-7.499,12.569-8.772,18.29c-0.754,3.389-1.939,12.814,2.041,14.647
	c1.917,0.883,4.14-0.838,5.631-1.541c4.367-2.06,8.783-4.363,13.358-5.813c3.509-1.112,7.785-2.174,10.702,0.731
	c3.042,3.028,4.172,7.568,5.383,11.399c0.96,3.039,2.082,5.271,4.667,6.924c3.306,2.115,8.548,2.305,12.439,1.961
	c5.103-0.451,9.648-2.941,13.699-5.934c4.26-3.147,6.972-6.736,10.759-0.617c1.778,2.874,1.465,6.445,4.732,8.211
	c4.603,2.488,10.388,0.759,15.037-0.509c5.923-1.616,12.41-0.221,18.499-2.102c3.646-1.126,4.373-2.081,8.061-0.079
	c7.723,4.192,20.521,9.479,27.927,2.67c5.505-5.06,8.358-12.053,15.957-13.941c4.616-1.147,10.643-0.855,14.836-2.914
	c4.946-2.428,8.661-6.103,14.067-8.072c5.547-2.02,10.429-2.532,14.948-6.406c9.277-7.954,1.758-23.042-7.579-26.951
	c-5.418-2.269-9.211-5.979-14.29-8.627c-6.509-3.395-14.658-5.422-21.703-7.451c-11.303-3.255-23.767-7.011-35.389-8.719
	C214.528,97.027,210.74,96.304,206.988,95.61z"/>
<path fill="#C66CAB" d="M307.064,199.519c-0.018,0.006-0.036,0.013-0.055,0.019c-8.27,2.835-16.365,10.26-24.562,13.987
	c-17.301,7.866-35.972,12.765-54.869,14.688c-19.229,1.957-41.765,1.674-60.378-0.068c-9.123-0.855-18.405-1.836-27.378-3.941
	c-16.072-3.771-31.475-11.943-47.147-17.128c-6.494-2.147-20.153-8.491-24.776-0.022c-4.203,7.696-1.988,21.211-4.24,29.811
	c-3.523,13.455-10.827,26.23,6.546,35.029c12.466,6.313,27.861,10.67,42.025,14.012c25.217,5.943,55.937,10.311,82.982,9.273
	c24.428-0.938,49.326-4.236,72.207-10.904c18.238-5.313,37.738-10.168,54.143-18.594c13.623-6.998,10.994-24.338,5.936-35.451
	c-2.42-5.322-5.662-10.53-8.451-15.944c-1.782-3.459-2.632-7.343-4.45-10.775C311.784,198.199,311.815,197.893,307.064,199.519z"/>
<path fill="#A3DCEA" d="M90.089,188.332c-3.462,2.176-6.18,6.236-9.628,8.845c-4.46,3.376-8.375,5.454-12.459,9.22
	c-2.34,2.157-5.453,3.332-7.569,5.771c-2.347,2.706-2.989,6.287-3.825,9.643c-0.682,2.74-2.27,5.687-2.506,8.494
	c-0.634,7.527,5.673,8.832,11.752,7.215c3.748-0.997,5.097-3.399,8.129-5.408c4.764-3.154,11.035-3.683,16.583-3.162
	c4.226,0.396,6.161,4.168,7.404,7.76c1.412,4.078,2.717,7.564,5.254,11.084c2.481,3.443,6.633,3.563,10.601,2.947
	c7.578-1.177,13.837,0.57,21.216-2.626c4.493-1.946,8.186-5.659,13.083-6.697c4.398-0.93,3.327,1.357,4.206,4.272
	c2.013,6.677,11.016,8.886,16.987,9.948c8.113,1.444,14.918-3.539,22.577-5.116c3.189-0.656,6.598-2.152,9.766-2.469
	c5.317-0.531,9.364,4.412,14.386,5.364c2.632,0.499,4.824,2.067,7.509,2.733c2.605,0.646,5.361,1.008,8.049,1.006
	c2.167-0.001,4.005,0.612,6.156,0.963c3.147,0.513,6.934,0.287,9.327-2.074c0.862-0.852,1.42-1.799,2.425-2.533
	c1.491-1.09,3.209-1.758,4.457-3.184c1.729-1.976,1.627-5.12,3.291-6.979c1.643-1.834,5.438-2.688,7.748-3.122
	c5.757-1.083,11.703-0.287,17.411-1.762c8.771-2.267,14.373-11.172,23.738-11.135c3.604,0.015,7.33,0.229,10.932,0.008
	c3.559-0.22,10.816-2.127,12.481-5.529c1.48-3.022,0.92-10.744-0.271-13.803c-2.439-6.257-8.598-7.51-14.257-9.332
	c-5.226-1.682-6.337-8.262-11.374-10.206c-3.719-1.436-4.925,0.156-7.711,2.101c-2.919,2.037-6.395,2.933-9.558,4.494
	c-5.342,2.637-11.063,4.359-16.499,6.91c-4.172,1.958-7.853,5.327-12.389,6.636c-2.438,0.702-4.686,0.847-7.007,1.65
	c-2.915,1.01-5.798,2.281-8.746,3.33c-4.467,1.589-9.597,2.457-14.165,3.4c-8.281,1.711-17.457,3.927-25.885,4.008
	c-6.448,0.063-12.162,0.328-18.296-1.594c-7.387-2.313-14.067-1.239-21.466-0.933c-3.068,0.127-5.134-0.877-7.854-2.18
	c-3.796-1.819-6.652-1.932-10.819-2.103c-9.512-0.391-18.65-3.661-27.368-7.254c-3.274-1.35-28.66-13.166-25.575-18.603"/>
<path fill="#C66CAB" d="M285.976,153.883c-0.709,0.061-1.42,0.151-2.15,0.299c-5.041,1.015-9.003,3.418-12.993,6.48
	c-3.237,2.484-6.98,5.322-11.093,6.122c-3.938,0.766-7.938-0.559-11.998,0.221c-3.261,0.626-4.595,2.97-5.85,6.007
	c-1.073,2.598-1.849,5.105-3.577,7.333c-1.764,2.272-5.732,3.362-8.275,4.458c-2.934,1.264-5.036,1.532-8.137,0.427
	c-5.561-1.98-9.919-7.36-15.889-8.226c-4.73-0.686-11.501,0.619-15.944,2.29c-6.574,2.473-18.25,4.224-24.344-1.004
	c-2.513-2.156-3.893-9.867-7.181-10.273c-4.247-0.525-7.289,4.153-10.235,6.495c-6.323,5.025-18.042,6.774-24.538,0.966
	c-2.342-2.096-2.191-5.271-3.457-8.067c-1.769-3.905-3.124-11.171-7.989-12.412c-3.229-0.824-6.753,2.545-9.444,3.982
	c-3.775,2.016-9.79,2.53-11.786,6.361c-1.691,3.246-2.167,8.711-2.663,12.336c-1.138,8.336,1.047,15.445,8.378,20.159
	c9.815,6.313,21.938,10.67,33.09,14.011c19.856,5.943,44.044,10.312,65.34,9.273c19.234-0.938,38.838-4.235,56.855-10.903
	c14.359-5.313,29.715-10.169,42.631-18.594c7.272-4.745,8.44-14.194,7.691-22.15c-0.396-4.206-1.337-8.386-2.697-12.383
	c-2.237-6.576-3.655-3.759-9.388-3.421C288.799,153.761,287.393,153.762,285.976,153.883z"/>
<path fill="none" stroke="#000000" stroke-width="2" stroke-miterlimit="10" d="M312.992,197.649
	c-1.566-2.703-2.054-0.426-5.835,0.868c-0.018,0.006-0.036,0.013-0.055,0.019c-8.27,2.835-16.365,10.26-24.562,13.987
	c-17.301,7.866-35.972,12.765-54.869,14.688c-19.229,1.957-41.765,1.674-60.378-0.068c-9.123-0.855-18.405-1.836-27.378-3.941
	c-16.072-3.771-31.475-11.943-47.147-17.128c-6.494-2.147-20.153-8.491-24.776-0.022c-0.796,1.457-1.361,3.123-1.771,4.925"/>
<path fill="none" stroke="#000000" stroke-width="2" stroke-miterlimit="10" d="M63,238.558
	C62.903,239.052,63.122,238.091,63,238.558c-3.523,13.455-10.075,23.535,7.297,32.334c12.466,6.313,27.861,10.67,42.025,14.012
	c25.217,5.943,55.937,10.311,82.982,9.273c24.428-0.938,49.326-4.236,72.207-10.904c18.238-5.313,37.738-10.168,54.143-18.594
	c13.623-6.998,12.295-25.027,5.936-35.451c-3.709-6.079-1.551-2.168-3.087-4.94"/>
<path fill="none" stroke="#000000" stroke-width="2" stroke-miterlimit="10" d="M299.479,186.713
	c6.799,2.549,7.575,6.521,12.521,10.937"/>
<path fill="none" stroke="#000000" stroke-width="2" stroke-miterlimit="10" d="M73.519,202.035
	c7.031-2.842,8.347-8.275,15.543-13.333"/>
<path fill="none" stroke="#000000" stroke-width="2" stroke-miterlimit="10" d="M71.297,202.754
	c-7.083,4.781-17.38,20.649-16.818,28.472c1.259,17.535,24.641-3.646,33.582-3.533c11.38,0.145,10.312,15.195,16.185,20.16
	c5.158,4.359,20.463,3.967,26.654,1.967c7.346-2.375,10.899-8.893,19.589-9.689c3.794,11.98,10.838,14.936,25.326,14.938
	c9.678,0.002,14.489-3.715,22.72-5.342c8.103-1.6,15.351,3.27,22.669,5.639c9.586,3.102,20.576,4.285,28.465-1.658
	c8.279-6.24,5.461-13.855,18.82-14.547c14.461-0.746,15.709,2.023,26.533-6.783c6.641-5.4,16.305-3.498,25.215-6.447
	c10.621-3.518,12.322-7.104,8.637-16.052c-1.902-4.616-9.75-12.215-16.873-12.228"/>
<path fill="none" stroke="#000000" stroke-width="2" stroke-miterlimit="10" d="M91.095,165.342
	c-2.774,13.454-7.964,23.697,5.715,32.496c9.815,6.313,21.938,10.67,33.09,14.011c19.856,5.943,44.044,10.312,65.34,9.273
	c19.234-0.938,38.837-4.235,56.855-10.903c14.359-5.313,29.715-10.169,42.631-18.594c10.727-6.998,8.656-24.338,4.674-35.453
	c-0.83-2.318-0.79-2.313-1.783-4.615"/>
<path fill="none" stroke="#000000" stroke-width="2" stroke-miterlimit="10" d="M96.935,128.373
	c7.381-3.791,14.014-13.839,22.203-18.706c7.718-4.586,14.936-8.579,23.674-10.6c15.445-3.57,31.386-5.354,47.606-5.132
	c18.75,0.257,38.314,4.642,56.039,9.821c14.354,4.194,31.584,7.657,41.869,19.318"/>
<path fill="none" stroke="#000000" stroke-width="2" stroke-miterlimit="10" d="M97.598,129.697
	c-5.577,4.781-13.685,20.649-13.243,28.472c0.992,17.538,19.402-3.646,26.442-3.533c8.96,0.145,8.12,15.197,12.744,20.162
	c4.062,4.36,16.113,3.967,20.987,1.967c5.784-2.375,8.582-8.893,15.424-9.689c2.987,11.98,8.534,14.937,19.941,14.938
	c7.62,0.001,11.408-3.715,17.889-5.342c6.379-1.601,12.086,3.269,17.85,5.639c7.547,3.101,16.201,4.284,22.412-1.658
	c6.52-6.24,4.301-13.856,14.818-14.547c11.387-0.747,12.369,2.023,20.893-6.784c5.229-5.403,12.838-3.499,19.854-6.45
	c8.363-3.517,9.703-7.104,6.801-16.052c-1.498-4.616-7.137-15.056-12.746-15.069"/>
<path fill="none" stroke="#000000" stroke-width="2" stroke-miterlimit="10" d="M173,105.67c-0.265,1.508,0.045,3.075,1.333,4"/>
<path fill="none" stroke="#000000" stroke-width="2" stroke-miterlimit="10" d="M67,206.668c-1.022,3.544-0.993,8.845-4,11.667"/>
<path fill="#ED1563" stroke="#ED1563" stroke-width="2" stroke-miterlimit="10" d="M77.798,247.487
	c0.8-2.942,2.777-5.729,6.019-5.668c3.103,0.059,7.709,2.411,7.699,5.857c-0.017,6.421-9.821,11.767-7.804,18.988h-0.277
	c-1.69-7.305-12.857-7.298-15.95-12.926c-1.659-3.02,1.256-7.292,3.951-8.831c2.816-1.607,5.886-0.108,7.999,2.091L77.798,247.487z"
	/>
<path fill="#ED1563" stroke="#ED1563" stroke-width="2" stroke-miterlimit="10" d="M312.907,239.989
	c2.199-2.112,5.328-3.486,8.076-1.767c2.631,1.646,5.372,6.032,3.591,8.983c-3.315,5.498-14.473,5.041-16.457,12.271l-0.238-0.143
	c2.307-7.134-7.272-12.87-7.032-19.288c0.131-3.442,4.828-5.607,7.931-5.542c3.242,0.07,5.104,2.935,5.785,5.907L312.907,239.989z"
	/>
<path fill="#ED1563" stroke="#ED1563" stroke-width="2" stroke-miterlimit="10" d="M107.733,181.948
	c0.8-2.942,2.777-5.729,6.019-5.668c3.103,0.059,7.709,2.411,7.699,5.857c-0.017,6.421-9.82,11.767-7.804,18.988h-0.277
	c-1.69-7.305-12.857-7.298-15.95-12.926c-1.659-3.02,1.256-7.292,3.951-8.831c2.816-1.607,5.886-0.108,7.999,2.091L107.733,181.948z
	"/>
<path fill="#ED1563" stroke="#ED1563" stroke-width="2" stroke-miterlimit="10" d="M281.571,168.711
	c1.674-2.548,4.42-4.583,7.481-3.518c2.931,1.02,6.578,4.687,5.499,7.959c-2.011,6.098-12.99,8.134-13.316,15.625l-0.264-0.086
	c0.662-7.469-9.954-10.931-11.145-17.241c-0.641-3.386,3.459-6.541,6.498-7.167c3.175-0.653,5.628,1.726,6.953,4.473
	L281.571,168.711z"/>
<path fill="#ED1563" stroke="#ED1563" stroke-width="2" stroke-miterlimit="10" d="M153.557,190.033
	c2.446-1.821,5.722-2.792,8.234-0.743c2.404,1.961,4.576,6.656,2.44,9.361c-3.978,5.04-14.99,3.192-17.862,10.12l-0.218-0.172
	c3.18-6.791-5.608-13.679-4.567-20.016c0.559-3.4,5.49-4.96,8.56-4.508c3.208,0.474,4.697,3.549,5.001,6.583L153.557,190.033z"/>
<path fill="#ED1563" stroke="#ED1563" stroke-width="2" stroke-miterlimit="10" d="M198.54,195.28
	c0.8-2.942,2.777-5.729,6.019-5.668c3.103,0.059,7.709,2.411,7.699,5.857c-0.017,6.421-9.82,11.767-7.804,18.988h-0.277
	c-1.69-7.305-12.857-7.298-15.95-12.926c-1.659-3.02,1.256-7.292,3.951-8.831c2.816-1.607,5.886-0.108,7.999,2.091L198.54,195.28z"
	/>
<path fill="#ED1563" stroke="#ED1563" stroke-width="2" stroke-miterlimit="10" d="M244.437,188.766
	c0.725-2.962,2.63-5.799,5.872-5.82c3.104-0.021,7.769,2.213,7.847,5.658c0.147,6.419-9.517,12.014-7.315,19.183l-0.276,0.007
	c-1.877-7.259-13.04-6.967-16.277-12.514c-1.734-2.976,1.07-7.322,3.725-8.929c2.774-1.679,5.882-0.259,8.05,1.885L244.437,188.766z
	"/>
<path fill="#ED1563" stroke="#ED1563" stroke-width="2" stroke-miterlimit="10" d="M124.798,263.599
	c0.8-2.942,2.777-5.729,6.019-5.668c3.103,0.059,7.709,2.411,7.699,5.857c-0.017,6.421-9.82,11.767-7.804,18.988h-0.277
	c-1.69-7.305-12.857-7.298-15.95-12.926c-1.659-3.02,1.256-7.292,3.951-8.831c2.816-1.607,5.886-0.108,7.999,2.091L124.798,263.599z
	"/>
<path fill="#ED1563" stroke="#ED1563" stroke-width="2" stroke-miterlimit="10" d="M265.043,256.422
	c1.063-2.857,3.286-5.454,6.508-5.099c3.085,0.34,7.459,3.102,7.137,6.532c-0.6,6.393-10.849,10.827-9.495,18.201l-0.276-0.024
	c-1.021-7.429-12.143-8.436-14.71-14.32c-1.38-3.158,1.912-7.148,4.735-8.437c2.949-1.345,5.871,0.427,7.776,2.809L265.043,256.422z
	"/>
<path fill="#ED1563" stroke="#ED1563" stroke-width="2" stroke-miterlimit="10" d="M216.504,266.848
	c2.199-2.111,5.329-3.484,8.077-1.765c2.63,1.646,5.37,6.033,3.59,8.983c-3.317,5.498-14.474,5.04-16.459,12.27l-0.238-0.143
	c2.308-7.134-7.271-12.871-7.03-19.288c0.131-3.443,4.829-5.607,7.931-5.541c3.242,0.069,5.104,2.935,5.785,5.907L216.504,266.848z"
	/>
<path fill="#ED1563" stroke="#ED1563" stroke-width="2" stroke-miterlimit="10" d="M175.29,271.142
	c2.984-0.628,6.366-0.136,7.786,2.778c1.36,2.789,1.361,7.962-1.712,9.521c-5.725,2.907-14.946-3.389-20.459,1.693l-0.126-0.247
	c5.735-4.829,0.646-14.77,4.25-20.084c1.933-2.853,7.064-2.2,9.661-0.502c2.713,1.776,2.776,5.192,1.779,8.074L175.29,271.142z"/>
<path fill="#EF4779" stroke="#EF4779" stroke-width="2" stroke-miterlimit="10" d="M74.603,208.524
	c-5.051,4.923-2.411,12.823,4.723,8.25c6.026-3.863,2.13-12.928-4.057-8.917L74.603,208.524z"/>
<path fill="#E8E8E8" d="M79.337,210.806c-0.397,1.097-2.077,1.429-2.17,2.63c-0.087,1.111,0.898,1.713,2,1.535
	c0.92-0.148,2.454-2.02,2.174-3.16c-0.272-1.108-1.489-0.871-2.503-0.838"/>
<path fill="#E8E8E8" d="M76.235,210.058c-1.973-0.032-3.344,4.864-1.712,6.011c-0.202-0.013-0.394,0.017-0.594-0.027
	c-1.438-2.425-2.19-7.077,2.306-6.483"/>
<path fill="#555BA8" stroke="#555BA8" stroke-width="2" stroke-miterlimit="10" d="M285.379,137.085
	c-1.108,6.966,5.73,11.722,8.718,3.792c2.522-6.699-6.017-11.639-8.581-4.726L285.379,137.085z"/>
<path fill="#E8E8E8" d="M290.539,136.084c0.336,1.118-0.813,2.388-0.17,3.407c0.596,0.942,1.744,0.836,2.521,0.036
	c0.648-0.669,0.76-3.085-0.146-3.833c-0.88-0.727-1.714,0.191-2.507,0.823"/>
<path fill="#E8E8E8" d="M287.604,137.339c-1.601,1.153,0.227,5.898,2.22,5.842c-0.17,0.111-0.306,0.249-0.492,0.333
	c-2.603-1.084-5.985-4.365-2.026-6.576"/>
<path fill="#555BA8" stroke="#555BA8" stroke-width="2" stroke-miterlimit="10" d="M117.606,237.396
	c-2.882,6.438,2.484,12.809,7.431,5.929c4.178-5.812-2.782-12.803-7.057-6.795L117.606,237.396z"/>
<path fill="#E8E8E8" d="M122.849,237.771c0.034,1.166-1.404,2.094-1.049,3.245c0.329,1.064,1.465,1.262,2.424,0.69
	c0.801-0.478,1.538-2.782,0.856-3.739c-0.661-0.93-1.705-0.261-2.635,0.144"/>
<path fill="#E8E8E8" d="M119.689,238.219c-1.846,0.697-1.317,5.755,0.623,6.22c-0.192,0.063-0.36,0.16-0.562,0.192
	c-2.23-1.724-4.644-5.771-0.245-6.877"/>
<path fill="#EF4779" stroke="#EF4779" stroke-miterlimit="10" d="M164.537,236.508c-0.071,7.053,7.393,10.751,9.18,2.468
	c1.509-6.997-7.664-10.627-9.183-3.411L164.537,236.508z"/>
<path fill="#E8E8E8" d="M169.493,234.759c0.497,1.056-0.452,2.48,0.334,3.394c0.727,0.846,1.848,0.571,2.499-0.335
	c0.543-0.757,0.298-3.164-0.708-3.77c-0.978-0.589-1.667,0.44-2.358,1.183"/>
<path fill="#E8E8E8" d="M166.775,236.431c-1.414,1.376,1.091,5.802,3.055,5.453c-0.152,0.134-0.266,0.291-0.438,0.401
	c-2.733-0.689-6.563-3.437-2.971-6.207"/>
<path fill="#8CC861" stroke="#8CC861" stroke-width="2" stroke-miterlimit="10" d="M236.936,242.48
	c-6.385,2.996-6.478,11.326,1.761,9.342c6.958-1.677,6.247-11.517-0.912-9.754L236.936,242.48z"/>
<path fill="#E8E8E8" d="M240.662,246.187c-0.734,0.905-2.431,0.669-2.912,1.773c-0.446,1.021,0.286,1.912,1.387,2.105
	c0.918,0.161,2.979-1.104,3.088-2.274c0.107-1.136-1.121-1.31-2.09-1.61"/>
<path fill="#E8E8E8" d="M237.976,244.463c-1.854-0.676-4.753,3.501-3.586,5.119c-0.188-0.079-0.378-0.113-0.552-0.221
	c-0.565-2.762,0.247-7.404,4.302-5.37"/>
<path fill="#555BA8" stroke="#555BA8" stroke-width="2" stroke-miterlimit="10" d="M272.165,222.643
	c-0.822,7.005,6.205,11.478,8.865,3.433c2.246-6.796-6.488-11.384-8.768-4.371L272.165,222.643z"/>
<path fill="#E8E8E8" d="M277.279,221.432c0.382,1.103-0.713,2.418-0.029,3.41c0.633,0.918,1.776,0.765,2.52-0.067
	c0.621-0.694,0.634-3.114-0.302-3.823c-0.909-0.689-1.705,0.261-2.472,0.925"/>
<path fill="#E8E8E8" d="M274.398,222.805c-1.553,1.218,0.467,5.885,2.457,5.747c-0.166,0.118-0.297,0.262-0.479,0.354
	c-2.645-0.978-6.16-4.117-2.293-6.488"/>
<path fill="#EF4778" stroke="#EF4778" stroke-width="2" stroke-miterlimit="10" d="M311.472,212.12
	c-1.692,6.847,4.72,12.164,8.366,4.515c3.079-6.461-5.013-12.105-8.151-5.434L311.472,212.12z"/>
<path fill="#E8E8E8" d="M316.698,211.559c0.24,1.143-1.011,2.311-0.456,3.38c0.513,0.99,1.666,0.981,2.508,0.249
	c0.703-0.611,1.019-3.011,0.179-3.831c-0.815-0.799-1.724,0.045-2.567,0.608"/>
<path fill="#E8E8E8" d="M313.668,212.561c-1.692,1.014-0.273,5.896,1.717,6.01c-0.178,0.096-0.325,0.222-0.519,0.29
	c-2.501-1.301-5.595-4.855-1.462-6.725"/>
<path fill="#555BA8" stroke="#555BA8" stroke-width="2" stroke-miterlimit="10" d="M92.228,147.579
	c-5.051,4.923-2.411,12.823,4.723,8.25c6.025-3.863,2.131-12.928-4.057-8.917L92.228,147.579z"/>
<path fill="#E8E8E8" d="M96.962,149.86c-0.398,1.097-2.077,1.429-2.171,2.63c-0.087,1.111,0.897,1.713,1.999,1.535
	c0.92-0.148,2.454-2.02,2.174-3.16c-0.271-1.108-1.488-0.871-2.502-0.838"/>
<path fill="#E8E8E8" d="M93.86,149.112c-1.973-0.032-3.344,4.864-1.712,6.011c-0.202-0.013-0.394,0.017-0.594-0.027
	c-1.438-2.425-2.19-7.077,2.306-6.483"/>
<path fill="#EF4779" stroke="#EF4779" stroke-miterlimit="10" d="M135.957,141.023c-5.051,4.923-2.411,12.823,4.723,8.25
	c6.025-3.863,2.131-12.928-4.057-8.917L135.957,141.023z"/>
<path fill="#E8E8E8" d="M140.692,143.305c-0.398,1.097-2.077,1.429-2.171,2.63c-0.087,1.111,0.897,1.713,1.999,1.535
	c0.92-0.148,2.454-2.02,2.174-3.16c-0.271-1.108-1.488-0.871-2.502-0.838"/>
<path fill="#E8E8E8" d="M137.589,142.557c-1.973-0.032-3.344,4.864-1.712,6.011c-0.202-0.013-0.394,0.017-0.594-0.027
	c-1.438-2.425-2.19-7.077,2.306-6.483"/>
<path fill="#555BA8" stroke="#555BA8" stroke-width="2" stroke-miterlimit="10" d="M175.222,164.069
	c-5.051,4.923-2.411,12.823,4.723,8.25c6.025-3.863,2.131-12.928-4.057-8.917L175.222,164.069z"/>
<path fill="#E8E8E8" d="M179.957,166.351c-0.398,1.097-2.077,1.429-2.171,2.63c-0.087,1.111,0.897,1.713,1.999,1.535
	c0.92-0.148,2.454-2.02,2.174-3.16c-0.271-1.108-1.488-0.871-2.502-0.838"/>
<path fill="#E8E8E8" d="M176.854,165.603c-1.973-0.032-3.344,4.864-1.712,6.011c-0.202-0.013-0.394,0.017-0.594-0.027
	c-1.438-2.425-2.19-7.077,2.306-6.483"/>
<path fill="#8CC861" stroke="#8CC861" stroke-width="2" stroke-miterlimit="10" d="M214.031,151.146
	c-5.052,4.923-2.411,12.823,4.723,8.25c6.025-3.863,2.131-12.928-4.057-8.917L214.031,151.146z"/>
<path fill="#E8E8E8" d="M218.766,153.427c-0.398,1.097-2.077,1.429-2.171,2.63c-0.087,1.111,0.897,1.713,1.999,1.535
	c0.92-0.148,2.454-2.02,2.174-3.16c-0.271-1.108-1.488-0.871-2.502-0.838"/>
<path fill="#E8E8E8" d="M215.663,152.679c-1.973-0.032-3.345,4.864-1.712,6.011c-0.203-0.013-0.395,0.017-0.594-0.027
	c-1.438-2.425-2.191-7.077,2.306-6.483"/>
<path fill="#EF4779" stroke="#EF4779" stroke-width="2" stroke-miterlimit="10" d="M255.599,151.146
	c-5.052,4.923-2.411,12.823,4.724,8.25c6.025-3.863,2.131-12.928-4.057-8.917L255.599,151.146z"/>
<path fill="#E8E8E8" d="M260.334,153.427c-0.398,1.097-2.078,1.429-2.172,2.63c-0.086,1.111,0.898,1.713,2,1.535
	c0.92-0.148,2.453-2.02,2.174-3.16c-0.271-1.108-1.488-0.871-2.502-0.838"/>
<path fill="#E8E8E8" d="M257.23,152.679c-1.973-0.032-3.344,4.864-1.712,6.011c-0.202-0.013-0.394,0.017-0.594-0.027
	c-1.438-2.425-2.19-7.077,2.306-6.483"/>
<path fill="#E8E8E8" d="M203.667,192.338c2.272,2.19,4.194,4.775,3.048,8.12c-0.407,1.191-1.187,3.13-1.832,4.226
	c-0.361,0.613-1.155,1.014-1.534,1.667c-0.41,0.708-0.449,1.643-0.933,2.36c1.275-0.561,2.606-2.438,3.611-3.498
	c1.147-1.21,2.236-2.343,2.764-3.952c0.456-1.392,0.646-2.794,0.542-4.261c-0.129-1.82-0.84-2.328-1.524-3.804
	c-1.315-0.244-2.734-0.711-4.142-0.692"/>
<path fill="#E8E8E8" d="M147.333,188.338c-1.993,0.972-0.65,5.272-0.07,6.641c0.967,2.279,1.527,4.712,2.413,7.023
	c-2.602-0.767-2.511-2.483-3.534-4.427c-0.537-1.02-1.361-1.751-1.805-2.927c-1.081-2.863,0.267-5.402,2.996-6.477"/>
<path fill="#E8E8E8" d="M249.333,202.672c-1.305-0.386-2.265-2.712-3.332-3.676c-1.843-1.663-4.576-3.081-5.869-5.186
	c2.936,0.788,5.266,3.578,8.425,2.73c1.241-0.333,2.674-1.744,3.646-2.662c0.878-0.829,1.338-1.932,1.297-3.084
	c-0.011,2.748-0.615,4.668-1.857,7.063c-0.879,1.695-2.46,3.563-2.976,5.315"/>
<path fill="#E8E8E8" d="M109.833,180.338c2.398-2.258,9.206-3.586,9.633,1.271c0.202,2.292-2.031,4.267-2.968,6.22
	c-1.245,2.596-1.992,4.726-1.999,7.541c0-1.627,0.06-3.14,0.255-4.733c0.275-2.246,0.83-3.983,1.249-6.137
	c0.418-2.153,0.423-3.558-1.675-4.162c-1.392-0.401-2.679-0.494-4.162-0.5"/>
<path fill="#E8E8E8" d="M272.5,171.176c0.018-2.827,2.094-4.36,4.527-4.333c0.329,0.003,0.799-0.089,1.122-0.003
	c0.661,0.175,0.866,0.632,1.347,0.812c1.2,0.449,2.453,0.338,3.813,0.066c2.13-0.427,5.02-1.642,6.683,0.298
	c1.283,1.496,0.94,5.296-0.366,6.916c-0.559-0.45-0.479-1.173-0.946-1.758c-0.609-0.764-1.562-0.941-2.346-1.368
	c-1.726-0.94-3.091-1.373-5.137-1.466c-2.988-0.135-5.8,0.218-8.696,0.504"/>
<path fill="#E8E8E8" d="M72.5,247.839c-1.092,3.346,1.991,5.141,4.319,6.333c2.185,1.119,3.839,2.458,4.748,4.645
	c-1.833-0.612-3.734-1.53-5.66-2.273c-1.776-0.686-4.073-1.151-5.75-2.075c-2.964-1.635-0.603-5.795,2.176-6.296"/>
<path fill="#E8E8E8" d="M121,272.001c2.127,2.447,6.156,3.773,7.317,7.003c0.901-0.51,2.194-2.896,3.034-3.854
	c1.145-1.306,1.768-2.64,2.137-4.325c-1.849,1.68-4.31,2.538-6.802,2.352c-2.987-0.224-4.846-3.085-7.441-3.661
	c0.7,0.752,1.172,1.634,1.921,2.318"/>
<path fill="#E8E8E8" d="M169.667,266.004c2.529-0.152,6.394,1.039,7.007,3.793c0.383,1.719-0.631,3.186,0.957,4.516
	c1.582,1.326,2.88,0.921,3.207,3.487c0.233,1.833-0.456,3.867-1.821,5.134c-0.044-1.23,0.279-2.833-0.333-3.921
	c-0.922-1.638-3.248-1.632-3.862-3.668c-0.652-2.16,0.633-4.11-1.058-6.084c-1.025-1.197-3.06-1.893-4.264-2.924"/>
<path fill="#E8E8E8" d="M214,280.837c2.457-0.671,5.528-1.706,7.676-2.987c0.722-0.431,1.378-1.012,2.005-1.587
	c0.555-0.509,1.736-1.239,2.154-1.926c1.423-2.336-1.086-8.014-4.118-7.012c1.825,1.932,1.62,6.272-0.348,7.987
	c-2.605,2.271-5.738,2.302-7.536,5.524"/>
<path fill="#E8E8E8" d="M319,241.17c1.262,0.049,2.105,1.423,2.332,2.422c0.543,2.402-0.256,3.63-2.196,4.758
	c-2.063,1.199-7.542,2.103-8.369,4.67c0.192-1.386,0.555-2.851,1.434-3.982c1.121-1.443,2.523-1.181,4.028-1.892
	c1.457-0.688,5.272-4.303,3.604-6.142"/>
<path fill="#E8E8E8" d="M261.667,256.17c-4.119,0.381-5.361,5.311-2.537,7.871c1.432,1.298,3.233,1.64,4.88,2.639
	c1.505,0.913,2.637,2.22,3.947,3.48c-0.905-2.176-1.773-4.05-3.635-5.451c-1.169-0.88-1.44-1.092-1.944-2.498
	c-0.663-1.854-0.843-4.221-0.378-6.207"/>
<path fill="#555BA8" stroke="#555BA8" stroke-width="2" stroke-miterlimit="10" d="M199.856,236.11
	c-0.822,7.005,6.205,11.478,8.865,3.433c2.246-6.796-6.488-11.384-8.768-4.371L199.856,236.11z"/>
<path fill="#E8E8E8" d="M204.971,234.899c0.382,1.103-0.713,2.418-0.029,3.41c0.633,0.918,1.776,0.765,2.52-0.067
	c0.621-0.694,0.634-3.114-0.302-3.823c-0.909-0.689-1.705,0.261-2.472,0.925"/>
<path fill="#E8E8E8" d="M202.09,236.272c-1.553,1.218,0.467,5.885,2.457,5.747c-0.166,0.118-0.297,0.262-0.479,0.354
	c-2.645-0.978-6.16-4.117-2.293-6.488"/>
<path fill="none" stroke="#000000" stroke-width="2" stroke-miterlimit="10" d="M287.664,121.75
	c-0.356-0.525-1.567,1.78-1.986,1.324l-2.65,1.325c-4.672,6.232-16.5,10.126-23.109,12.613c-6.906,2.598-16.072,4.345-23.395,5.12
	c-14.861,1.573-28.242,3.77-43.328,1.403c-15.893-2.494-32.914-5.492-48.412-7.731c-9.478-1.37-18.869-2.469-28.348-3.974
	c-6.974-1.107-17.986-6.865-21.439,1.159c-0.605,1.407,0.32-1.73,0,0"/>
<path fill="#F2696A" d="M145.5,76.75c-1.555,1.33-2.496,1.164-3,3.251c-0.309,1.278-0.032,3.16,0.039,4.46
	c1.794-0.03,5.099-1.156,5.477-3.018c0.317-1.564-1.175-5.334-3.016-4.943"/>
<path fill="#FFDC6D" d="M145.5,81.913c-1.555,1.33-2.496,1.164-3,3.251c-0.309,1.278-0.032,3.16,0.039,4.46
	c1.794-0.03,5.099-1.156,5.477-3.018c0.317-1.564-1.175-5.334-3.016-4.943"/>
<path fill="#CFDF69" d="M145.141,87.189c-1.555,1.33-2.496,1.164-3,3.251c-0.309,1.278-0.032,3.16,0.039,4.46
	c1.794-0.03,5.099-1.156,5.477-3.018c0.317-1.564-1.175-5.334-3.016-4.943"/>
<path fill="#91CFA6" d="M145.5,91.51c-1.555,1.33-2.496,1.164-3,3.251c-0.309,1.278-0.032,3.16,0.039,4.46
	c1.794-0.03,5.099-1.156,5.477-3.018c0.317-1.564-1.175-5.334-3.016-4.943"/>
<path fill="#7EC6EE" d="M145.141,96.51c-1.555,1.33-2.496,1.164-3,3.251c-0.309,1.278-0.032,3.16,0.039,4.46
	c1.794-0.03,5.099-1.156,5.477-3.018c0.317-1.564-1.175-5.334-3.016-4.943"/>
<path fill="#7C90C9" d="M145.141,101.954c-1.555,1.33-2.496,1.164-3,3.251c-0.309,1.278-0.032,3.16,0.039,4.46
	c1.794-0.03,5.099-1.156,5.477-3.018c0.317-1.564-1.175-5.334-3.016-4.943"/>
<path fill="#A87EB8" d="M147.076,112.153c0.808-1.502,1.477-4.542-0.328-5.371c-2.027-0.931-4.834,2.175-5.25,3.903
	c-0.306,1.278-0.03,3.157,0.04,4.455c0.047,0.876,4.998-2.105,5.394-2.739C146.98,112.324,147.028,112.241,147.076,112.153z"/>
<path fill="#EE81B4" d="M141.397,116.241c-0.377,1.476-0.162,3.258,0.104,4.72c2.42-0.168,3.168,2.36,5.242,0.165
	c1.137-1.204,1.501-3.717,1.762-5.292c0.183-1.103,0.644-2.834-1.243-3.363C145.227,111.899,141.882,114.348,141.397,116.241z"/>
<path fill="none" stroke="#000000" stroke-width="2" stroke-miterlimit="10" d="M141.65,119.218
	c-0.195-11.474-0.307-24.268,0.34-35.777c0.239-4.242-0.413-4.25,1.344-5.943c2.285-2.202,3.541,0.51,4.102,3.354
	c1.514,7.682,0.37,24.581,0.001,33.78c-0.331,8.262-1.899,7.938-5.787,5.911V119.218z"/>
<path fill="#F2696A" d="M176.731,67.125c-1.555,1.33-2.496,1.164-3,3.251c-0.309,1.278-0.032,3.16,0.039,4.46
	c1.794-0.03,5.099-1.156,5.477-3.018c0.317-1.564-1.175-5.334-3.016-4.943"/>
<path fill="#FFDC6D" d="M176.731,72.288c-1.555,1.33-2.496,1.164-3,3.251c-0.309,1.278-0.032,3.16,0.039,4.46
	c1.794-0.03,5.099-1.156,5.477-3.018c0.317-1.564-1.175-5.334-3.016-4.943"/>
<path fill="#CFDF69" d="M176.372,77.564c-1.555,1.33-2.496,1.164-3,3.251c-0.309,1.278-0.032,3.16,0.039,4.46
	c1.794-0.03,5.099-1.156,5.477-3.018c0.317-1.564-1.175-5.334-3.016-4.943"/>
<path fill="#91CFA6" d="M176.731,81.885c-1.555,1.33-2.496,1.164-3,3.251c-0.309,1.278-0.032,3.16,0.039,4.46
	c1.794-0.03,5.099-1.156,5.477-3.018c0.317-1.564-1.175-5.334-3.016-4.943"/>
<path fill="#7EC6EE" d="M176.372,86.885c-1.555,1.33-2.496,1.164-3,3.251c-0.309,1.278-0.032,3.16,0.039,4.46
	c1.794-0.03,5.099-1.156,5.477-3.018c0.317-1.564-1.175-5.334-3.016-4.943"/>
<path fill="#7C90C9" d="M176.372,92.329c-1.555,1.33-2.496,1.164-3,3.251c-0.309,1.278-0.032,3.16,0.039,4.46
	c1.794-0.03,5.099-1.156,5.477-3.018c0.317-1.564-1.175-5.334-3.016-4.943"/>
<path fill="#A87EB8" d="M178.308,102.528c0.808-1.502,1.477-4.542-0.328-5.371c-2.027-0.931-4.834,2.175-5.25,3.903
	c-0.306,1.278-0.03,3.157,0.04,4.455c0.047,0.876,4.998-2.105,5.393-2.739C178.212,102.699,178.26,102.616,178.308,102.528z"/>
<path fill="#EE81B4" d="M172.629,106.616c-0.377,1.476-0.162,3.258,0.104,4.72c2.42-0.168,3.168,2.36,5.242,0.165
	c1.137-1.204,1.502-3.717,1.762-5.292c0.183-1.103,0.644-2.834-1.243-3.363C176.458,102.274,173.113,104.723,172.629,106.616z"/>
<path fill="none" stroke="#000000" stroke-width="2" stroke-miterlimit="10" d="M172.881,109.593
	c-0.195-11.474-0.307-24.268,0.34-35.777c0.239-4.242-0.413-4.25,1.344-5.943c2.285-2.202,3.541,0.51,4.101,3.354
	c1.514,7.682,0.371,24.581,0.002,33.78c-0.332,8.262-1.9,7.938-5.788,5.911V109.593z"/>
<path fill="#F2696A" d="M213.387,79.176c-1.555,1.33-2.496,1.164-3,3.251c-0.309,1.278-0.031,3.16,0.039,4.46
	c1.794-0.03,5.099-1.156,5.477-3.018c0.317-1.564-1.175-5.334-3.016-4.943"/>
<path fill="#FFDC6D" d="M213.387,84.339c-1.555,1.33-2.496,1.164-3,3.251c-0.309,1.278-0.031,3.16,0.039,4.46
	c1.794-0.03,5.099-1.156,5.477-3.018c0.317-1.564-1.175-5.334-3.016-4.943"/>
<path fill="#CFDF69" d="M213.027,89.615c-1.555,1.33-2.496,1.164-3,3.251c-0.309,1.278-0.031,3.16,0.039,4.46
	c1.794-0.03,5.099-1.156,5.477-3.018c0.317-1.564-1.175-5.334-3.016-4.943"/>
<path fill="#91CFA6" d="M213.387,93.937c-1.555,1.33-2.496,1.164-3,3.251c-0.309,1.278-0.031,3.16,0.039,4.46
	c1.794-0.03,5.099-1.156,5.477-3.018c0.317-1.564-1.175-5.334-3.016-4.943"/>
<path fill="#7EC6EE" d="M213.027,98.937c-1.555,1.33-2.496,1.164-3,3.251c-0.309,1.278-0.031,3.16,0.039,4.46
	c1.794-0.03,5.099-1.156,5.477-3.018c0.317-1.564-1.175-5.334-3.016-4.943"/>
<path fill="#7C90C9" d="M213.027,104.38c-1.555,1.33-2.496,1.164-3,3.251c-0.309,1.278-0.031,3.16,0.039,4.46
	c1.794-0.03,5.099-1.156,5.477-3.018c0.317-1.564-1.175-5.334-3.016-4.943"/>
<path fill="#A87EB8" d="M214.963,114.579c0.808-1.502,1.477-4.542-0.328-5.371c-2.027-0.931-4.834,2.175-5.25,3.903
	c-0.306,1.278-0.029,3.157,0.041,4.455c0.047,0.876,4.997-2.105,5.393-2.739C214.867,114.75,214.915,114.667,214.963,114.579z"/>
<path fill="#EE81B4" d="M209.284,118.667c-0.378,1.476-0.161,3.258,0.104,4.72c2.42-0.168,3.168,2.36,5.242,0.165
	c1.137-1.204,1.502-3.717,1.762-5.292c0.183-1.103,0.644-2.834-1.243-3.363C213.113,114.325,209.769,116.774,209.284,118.667z"/>
<path fill="none" stroke="#000000" stroke-width="2" stroke-miterlimit="10" d="M209.537,121.645
	c-0.195-11.474-0.308-24.268,0.34-35.777c0.238-4.242-0.413-4.25,1.344-5.943c2.285-2.202,3.541,0.51,4.102,3.354
	c1.514,7.682,0.371,24.581,0.002,33.78c-0.332,8.262-1.9,7.938-5.787,5.911V121.645z"/>
<path fill="#F2696A" d="M251.104,70.833c-1.556,1.33-2.496,1.164-3,3.251c-0.309,1.278-0.032,3.16,0.038,4.46
	c1.795-0.03,5.1-1.156,5.478-3.018c0.317-1.564-1.175-5.334-3.016-4.943"/>
<path fill="#FFDC6D" d="M251.104,75.995c-1.556,1.33-2.496,1.164-3,3.251c-0.309,1.278-0.032,3.16,0.038,4.46
	c1.795-0.03,5.1-1.156,5.478-3.018c0.317-1.564-1.175-5.334-3.016-4.943"/>
<path fill="#CFDF69" d="M250.744,81.271c-1.556,1.33-2.496,1.164-3,3.251c-0.309,1.278-0.032,3.16,0.038,4.46
	c1.795-0.03,5.1-1.156,5.478-3.018c0.317-1.564-1.175-5.334-3.016-4.943"/>
<path fill="#91CFA6" d="M251.104,85.593c-1.556,1.33-2.496,1.164-3,3.251c-0.309,1.278-0.032,3.16,0.038,4.46
	c1.795-0.03,5.1-1.156,5.478-3.018c0.317-1.564-1.175-5.334-3.016-4.943"/>
<path fill="#7EC6EE" d="M250.744,90.593c-1.556,1.33-2.496,1.164-3,3.251c-0.309,1.278-0.032,3.16,0.038,4.46
	c1.795-0.03,5.1-1.156,5.478-3.018c0.317-1.564-1.175-5.334-3.016-4.943"/>
<path fill="#7C90C9" d="M250.744,96.036c-1.556,1.33-2.496,1.164-3,3.251c-0.309,1.278-0.032,3.16,0.038,4.46
	c1.795-0.03,5.1-1.156,5.478-3.018c0.317-1.564-1.175-5.334-3.016-4.943"/>
<path fill="#A87EB8" d="M252.68,106.235c0.808-1.502,1.477-4.542-0.328-5.371c-2.027-0.931-4.835,2.175-5.249,3.903
	c-0.307,1.278-0.031,3.157,0.039,4.455c0.048,0.876,4.998-2.105,5.394-2.739C252.584,106.407,252.632,106.324,252.68,106.235z"/>
<path fill="#EE81B4" d="M247.001,110.324c-0.377,1.476-0.162,3.258,0.104,4.72c2.42-0.168,3.169,2.36,5.242,0.165
	c1.137-1.204,1.502-3.717,1.762-5.292c0.183-1.103,0.644-2.834-1.243-3.363C250.83,105.981,247.485,108.431,247.001,110.324z"/>
<path fill="none" stroke="#000000" stroke-width="2" stroke-miterlimit="10" d="M247.253,113.301
	c-0.195-11.474-0.307-24.268,0.341-35.777c0.239-4.242-0.413-4.25,1.345-5.943c2.284-2.202,3.54,0.51,4.101,3.354
	c1.514,7.682,0.371,24.581,0.002,33.78c-0.332,8.262-1.9,7.938-5.788,5.911V113.301z"/>
</svg>
