<?xml version="1.0" standalone="no"?>
<!DOCTYPE svg PUBLIC "-//W3C//DTD SVG 20010904//EN"
 "http://www.w3.org/TR/2001/REC-SVG-20010904/DTD/svg10.dtd">
<svg version="1.0" xmlns="http://www.w3.org/2000/svg"
 width="750.000000pt" height="478.000000pt" viewBox="0 0 750.000000 478.000000"
 preserveAspectRatio="xMidYMid meet">

<g transform="translate(0.000000,478.000000) scale(0.100000,-0.100000)"
fill="#000000" stroke="none">
<path d="M3 4478 c3 -167 8 -325 12 -353 7 -60 34 -123 44 -106 5 7 12 3 20
-13 7 -13 24 -29 36 -36 13 -7 21 -18 18 -25 -2 -8 3 -25 12 -39 10 -14 15
-33 11 -41 -12 -31 -86 -10 -86 25 0 11 -5 20 -11 20 -5 0 -8 -4 -5 -9 7 -11
-14 -74 -23 -66 -3 4 -11 21 -18 38 -10 27 -12 9 -12 -115 -1 -82 0 -148 2
-148 2 0 24 7 49 16 26 8 61 14 80 12 35 -3 33 1 55 -115 l8 -43 44 35 c49 39
70 43 113 18 28 -17 30 -17 43 0 8 11 11 25 8 33 -3 8 -1 20 5 27 5 6 12 26
14 42 3 29 1 30 -39 33 -64 5 -73 25 -28 64 81 72 85 76 85 111 0 19 6 40 14
46 11 9 17 5 29 -21 29 -63 40 -146 79 -616 14 -170 5 -150 108 -257 52 -55
63 -79 55 -125 -6 -34 -2 -44 23 -77 22 -27 35 -61 47 -118 9 -44 28 -116 43
-160 24 -76 28 -122 20 -235 -3 -35 -3 -35 42 -38 32 -2 53 -11 72 -29 25 -24
28 -25 80 -13 29 6 76 21 103 32 68 28 248 86 289 93 61 12 79 -31 34 -81 -10
-12 -28 -55 -39 -97 l-21 -77 26 -31 c23 -27 26 -40 24 -83 l-3 -50 -78 -33
c-43 -18 -85 -39 -93 -47 -13 -13 -8 -14 38 -10 29 3 74 13 101 22 64 22 71
13 69 -88 -1 -90 -4 -88 83 -67 28 7 66 24 85 38 103 75 182 130 210 144 16 8
30 19 30 23 0 4 18 16 41 26 22 11 50 33 61 48 14 21 25 27 39 23 14 -5 19 -1
19 13 0 26 35 69 70 87 16 8 30 25 32 37 2 15 16 29 38 39 21 10 37 26 40 40
3 13 19 31 36 39 18 9 29 21 26 31 -4 21 65 82 85 75 15 -6 63 28 126 90 18
17 46 39 64 48 17 9 40 29 50 46 19 33 43 45 72 35 13 -4 23 2 35 20 27 41 80
58 206 66 63 4 131 10 151 14 23 4 39 3 43 -4 12 -19 43 -12 60 14 13 19 21
23 33 16 18 -9 66 1 88 19 8 7 36 11 62 10 78 -3 93 -1 93 13 0 6 14 41 30 75
18 39 28 72 24 86 -5 21 -8 21 -101 14 -91 -6 -236 -33 -258 -47 -5 -3 -73 -7
-150 -8 -214 -4 -269 -7 -285 -18 -8 -5 -50 -12 -93 -16 -63 -4 -80 -9 -92
-26 -8 -11 -31 -23 -51 -26 -20 -3 -44 -13 -53 -21 -9 -8 -25 -16 -36 -18 -11
-1 -27 -15 -37 -29 -12 -21 -22 -25 -42 -22 -14 3 -26 10 -26 15 0 5 -5 6 -10
3 -23 -14 -33 44 -55 320 -7 99 -16 187 -19 195 -2 8 -7 27 -10 43 -5 22 -12
27 -35 27 -16 0 -38 8 -50 18 -19 15 -23 36 -36 192 -19 212 -29 273 -54 316
-11 18 -25 68 -31 111 -6 43 -21 132 -35 198 -13 66 -29 188 -35 270 -6 83
-13 156 -15 163 -13 36 47 192 73 192 4 0 13 9 20 20 12 20 10 20 -394 20
l-406 0 5 -197 c3 -109 3 -191 0 -183 -8 20 -34 50 -44 50 -5 0 -14 -11 -21
-25 -10 -18 -11 -48 -6 -112 4 -48 11 -125 14 -170 4 -46 10 -83 15 -83 16 0
39 100 43 195 3 55 5 106 5 113 2 27 20 9 41 -39 32 -74 56 -282 59 -507 1
-57 4 -74 17 -79 9 -3 20 0 24 7 8 13 24 133 36 273 3 37 8 67 10 67 11 0 49
-24 56 -34 4 -6 8 -45 8 -86 1 -127 16 -213 39 -229 12 -7 21 -19 21 -26 0 -6
9 -20 20 -30 11 -10 20 -26 20 -37 0 -11 7 -18 20 -18 11 0 20 -7 20 -15 0 -9
7 -26 15 -39 21 -32 21 -107 1 -139 -30 -45 -79 -59 -448 -121 -48 -8 -100
-22 -117 -30 -16 -9 -36 -16 -44 -16 -25 0 -57 46 -63 91 -11 82 -33 100 -59
49 -9 -16 -22 -30 -30 -30 -10 0 -15 -11 -15 -33 0 -59 -49 -99 -79 -64 -6 8
-15 46 -21 86 -6 40 -15 93 -21 117 -9 33 -8 51 1 73 12 30 7 51 -12 51 -6 0
-16 7 -23 16 -10 14 -14 15 -34 3 -19 -12 -22 -20 -17 -54 9 -61 9 -62 8 -192
-2 -102 -5 -123 -17 -123 -11 0 -15 11 -15 36 0 19 -4 65 -10 102 -5 37 -12
96 -14 132 -2 36 -6 74 -9 85 -21 82 -26 107 -31 161 -4 33 -4 68 0 77 10 26
43 20 71 -13 13 -16 29 -30 35 -30 5 0 22 -8 36 -18 15 -11 42 -24 60 -30 28
-10 35 -9 52 8 17 17 18 23 7 52 -13 37 -16 239 -4 310 8 47 31 68 51 48 14
-14 25 -112 32 -285 3 -77 10 -144 15 -150 5 -5 35 -12 67 -16 31 -4 80 -10
109 -14 41 -6 58 -4 78 9 22 15 25 23 25 79 0 43 -6 75 -20 102 -34 67 -42
101 -32 138 8 27 5 49 -14 107 -30 90 -49 225 -64 440 -7 91 -14 171 -16 178
-3 9 -117 12 -529 12 l-527 0 5 -302z m1725 -91 c44 -45 56 -85 42 -137 -13
-46 -7 -81 22 -147 17 -38 19 -62 16 -168 -2 -68 -6 -127 -10 -131 -12 -12
-108 -33 -123 -28 -16 7 -30 51 -39 129 -4 28 -9 68 -13 90 l-5 39 -23 -28
-22 -28 -21 27 c-33 41 -50 145 -43 255 5 86 8 95 26 95 17 0 21 -9 26 -60 4
-33 7 -88 8 -123 1 -62 22 -132 39 -132 13 0 31 92 42 220 16 177 21 186 78
127z m-738 -137 c15 -35 9 -125 -9 -143 -10 -9 -17 -6 -33 13 -17 21 -19 34
-15 78 9 81 35 105 57 52z m-244 -295 c6 -35 -10 -95 -27 -95 -22 0 -41 104
-22 123 19 19 42 5 49 -28z m1076 -422 c2 -24 1 -43 -3 -43 -10 0 -20 90 -12
104 8 12 10 6 15 -61z m-302 -292 c0 -10 -50 -25 -57 -17 -3 2 -2 9 2 15 8 13
55 15 55 2z"/>
<path d="M2410 4771 c0 -28 14 -41 46 -41 19 0 34 4 34 10 0 5 12 16 28 24 26
15 25 15 -40 16 -38 0 -68 -4 -68 -9z"/>
<path d="M4369 4771 c16 -10 28 -268 22 -469 -3 -70 -1 -75 33 -119 20 -26 36
-51 36 -56 0 -14 -10 -3 -24 25 -6 13 -20 25 -31 27 -17 3 -17 0 6 -30 25 -32
95 -76 105 -66 3 2 -5 65 -16 138 -22 139 -35 268 -46 452 l-6 107 -46 0 c-30
0 -42 -3 -33 -9z"/>
<path d="M5261 4753 c1 -16 5 -41 8 -58 6 -25 8 -21 12 28 3 41 1 57 -8 57 -8
0 -13 -12 -12 -27z"/>
<path d="M6010 4754 c-33 -17 -62 -23 -109 -24 -66 0 -141 -17 -141 -32 0 -4
39 -8 88 -8 63 0 94 -4 110 -16 16 -11 34 -13 66 -9 41 7 44 6 49 -21 3 -15 0
-35 -6 -44 -5 -10 -7 -25 -4 -34 5 -13 24 -16 114 -16 135 0 153 5 153 37 0
39 56 127 99 157 56 39 72 26 108 -87 12 -38 -42 -61 -87 -37 -15 8 -22 5 -38
-18 l-20 -28 25 -22 c18 -16 23 -27 17 -40 -4 -9 -11 -57 -16 -105 -4 -49 -13
-98 -19 -109 -8 -15 -8 -22 0 -27 10 -7 613 -26 916 -30 72 -1 142 -4 158 -7
25 -5 27 -3 27 25 0 18 -9 40 -20 51 -11 11 -20 25 -20 30 0 6 9 10 20 10 19
0 20 6 19 203 0 127 -4 192 -9 174 -5 -16 -14 -35 -21 -43 -7 -9 -10 -35 -7
-69 6 -68 -6 -82 -56 -65 -28 9 -40 8 -65 -4 -16 -9 -37 -16 -46 -16 -27 0
-77 57 -73 82 3 20 8 23 43 20 22 -2 49 -12 61 -23 28 -26 33 -25 81 22 l43
40 -34 30 c-34 30 -56 37 -56 19 0 -6 -11 -15 -25 -22 -37 -17 -79 13 -73 53
l5 29 -60 0 c-59 0 -59 0 -37 -18 27 -22 22 -47 -20 -91 -38 -41 -72 -41 -111
2 -16 17 -28 39 -27 47 2 8 21 25 43 37 l40 23 -520 -2 -520 -1 -45 -23z
m1313 -401 c9 -8 -12 -33 -27 -33 -20 0 -39 17 -32 29 8 12 49 15 59 4z m-425
-41 c3 -10 -5 -13 -29 -10 -18 2 -34 9 -37 16 -3 10 5 13 29 10 18 -2 34 -9
37 -16z m182 8 c13 -9 13 -11 0 -20 -8 -6 -24 -8 -35 -5 -11 2 -45 5 -74 5
-33 0 -51 4 -45 9 18 18 131 26 154 11z"/>
<path d="M4310 4760 c0 -5 5 -10 11 -10 5 0 7 5 4 10 -3 6 -8 10 -11 10 -2 0
-4 -4 -4 -10z"/>
<path d="M5580 4681 c-38 -7 -41 -22 -11 -56 59 -64 90 -223 60 -302 -16 -42
8 -53 112 -53 48 0 142 -7 210 -16 102 -13 139 -14 223 -4 56 6 103 13 105 15
1 2 4 43 6 92 1 48 6 99 10 112 l8 24 -94 -5 c-52 -2 -105 -10 -119 -18 l-25
-13 43 -18 c23 -10 42 -23 42 -29 0 -22 -40 -48 -105 -69 -80 -25 -101 -26
-146 -7 -19 7 -63 14 -99 15 -80 3 -106 19 -121 73 -11 44 -5 151 12 196 5 13
6 34 3 48 -5 20 -12 24 -43 23 -20 -1 -52 -5 -71 -8z"/>
<path d="M2287 4643 c-12 -11 -8 -58 7 -78 10 -13 11 -28 5 -49 -5 -17 -9 -54
-9 -83 0 -72 -16 -75 -23 -4 -2 32 -14 75 -25 97 l-21 39 -1 -45 c0 -26 -5
-51 -11 -57 -14 -14 7 -284 24 -295 6 -4 19 0 29 9 16 14 21 14 64 -6 47 -23
80 -24 247 -7 49 4 53 9 33 50 -9 19 -16 41 -16 50 0 25 -22 66 -37 66 -7 0
-13 7 -13 16 0 8 -4 12 -10 9 -5 -3 -10 -1 -10 5 0 8 -13 10 -40 5 -31 -5 -41
-3 -46 8 -7 20 13 57 31 57 8 0 15 4 15 10 0 5 11 12 24 16 26 6 51 48 47 78
-2 10 2 15 8 12 11 -7 18 18 19 72 l1 32 -143 0 c-78 0 -146 -3 -149 -7z m113
-291 c0 -5 16 -17 35 -28 37 -20 45 -34 20 -34 -9 0 -18 7 -21 15 -4 8 -14 15
-24 15 -10 0 -20 9 -23 20 -3 11 -1 20 4 20 5 0 9 -4 9 -8z"/>
<path d="M2202 4520 c0 -14 2 -19 5 -12 2 6 2 18 0 25 -3 6 -5 1 -5 -13z"/>
<path d="M3694 4479 c-14 -6 -11 -8 16 -9 32 -1 33 -2 15 -12 -11 -7 -28 -22
-38 -35 -10 -13 -23 -20 -29 -17 -5 4 0 17 14 31 l23 25 -24 -7 c-17 -5 -21
-4 -16 5 13 21 -32 -8 -48 -30 -8 -12 -21 -18 -29 -15 -9 4 -29 -7 -47 -24
-18 -17 -38 -29 -44 -28 -11 2 -13 -4 -16 -38 0 -8 -7 -15 -13 -15 -7 0 -22
-18 -32 -41 -11 -22 -23 -42 -28 -45 -14 -9 -9 33 6 45 22 18 16 49 -7 43 -17
-4 -18 -2 -8 17 7 13 8 21 2 21 -19 0 -33 -43 -28 -81 5 -37 3 -39 -21 -40
-21 -1 -23 -2 -7 -6 42 -10 34 -21 -21 -28 -33 -4 -52 -10 -45 -14 7 -5 14
-17 15 -27 2 -14 16 -22 57 -31 30 -6 47 -12 39 -12 -12 -1 -13 -3 -1 -10 10
-7 6 -10 -15 -15 -20 -5 -34 -17 -44 -39 -8 -18 -14 -35 -12 -39 1 -4 -7 -12
-18 -18 -36 -19 -36 -69 -1 -265 17 -97 17 -130 -1 -127 -12 2 -15 -3 -11 -18
4 -16 2 -19 -11 -14 -14 5 -16 -2 -16 -52 1 -66 34 -153 88 -230 42 -59 54
-57 48 9 -2 28 -5 52 -6 52 -2 0 -4 55 -5 122 -1 67 -6 161 -10 209 -8 96 -31
167 -46 143 -14 -22 -10 4 9 67 11 33 27 89 38 127 13 47 24 67 35 67 22 0 51
34 44 53 -6 13 -1 14 27 7 51 -13 121 -40 138 -53 35 -28 61 -37 78 -29 9 5
23 7 29 5 18 -6 83 16 83 28 0 6 5 7 10 4 6 -3 27 3 48 14 40 21 134 65 142
67 3 0 16 5 30 11 23 9 151 1 188 -12 6 -2 12 -1 12 4 0 7 -92 51 -138 66 -13
4 -22 9 -19 11 2 2 30 -5 62 -16 33 -11 63 -19 68 -17 11 3 -143 113 -155 109
-5 -1 -13 9 -17 22 -8 19 -72 70 -91 71 -3 1 -19 8 -36 17 -39 22 -185 47
-210 37z m168 -65 c20 -11 27 -19 20 -26 -15 -15 -43 -6 -60 20 -18 27 -4 29
40 6z m-61 -11 c18 -11 27 -23 24 -32 -3 -7 0 -20 6 -27 9 -11 8 -14 -2 -14
-11 0 -11 -2 1 -10 9 -6 11 -10 3 -10 -7 0 -10 -7 -6 -17 3 -10 4 -16 2 -13
-34 40 -42 52 -30 45 10 -6 12 -2 6 15 -4 14 -3 25 5 30 7 5 0 14 -22 28 -39
26 -29 29 13 5z m189 -25 c0 -6 -6 -5 -15 2 -8 7 -15 14 -15 16 0 2 7 1 15 -2
8 -4 15 -11 15 -16z m-68 -75 c-10 -26 -10 -24 -11 22 0 42 2 46 11 28 7 -15
7 -30 0 -50z m41 27 c3 -11 1 -18 -4 -14 -5 3 -9 12 -9 20 0 20 7 17 13 -6z
m-242 -50 c14 -31 15 -40 5 -40 -8 0 -16 12 -19 28 -3 15 -9 36 -13 47 -12 34
8 8 27 -35z m49 19 c0 -11 -4 -18 -10 -14 -5 3 -7 12 -3 20 7 21 13 19 13 -6z
m-133 -31 c-3 -8 -6 -5 -6 6 -1 11 2 17 5 13 3 -3 4 -12 1 -19z m-237 -109
c10 -5 -2 -8 -32 -9 -27 0 -51 0 -55 -1 -4 0 -9 4 -11 10 -2 7 3 8 14 4 12 -4
15 -3 10 5 -8 13 47 6 74 -9z m-90 -696 c0 -36 -2 -64 -4 -62 -8 10 -13 129
-5 129 5 0 9 -30 9 -67z"/>
<path d="M3451 4409 c-25 -32 -24 -43 3 -33 10 4 15 13 11 22 -4 12 -3 12 9 3
11 -9 15 -9 19 1 5 15 -2 38 -12 37 -3 0 -17 -14 -30 -30z"/>
<path d="M4247 4390 c3 -11 9 -20 13 -20 5 0 6 9 3 20 -3 11 -9 20 -13 20 -5
0 -6 -9 -3 -20z"/>
<path d="M3405 4371 c-3 -5 -1 -12 5 -16 5 -3 10 1 10 9 0 18 -6 21 -15 7z"/>
<path d="M3430 4330 c0 -5 5 -10 11 -10 5 0 7 5 4 10 -3 6 -8 10 -11 10 -2 0
-4 -4 -4 -10z"/>
<path d="M4254 4218 c32 -29 64 -54 70 -54 6 -1 16 -2 22 -3 7 0 14 -10 17
-21 6 -24 -14 -26 -47 -5 -12 8 -45 17 -72 20 l-49 6 48 -18 c36 -12 55 -26
73 -54 29 -46 39 -53 62 -40 20 10 42 -2 42 -23 0 -6 -7 -3 -15 7 -13 18 -14
18 -22 0 -7 -13 -3 -24 14 -42 13 -13 23 -19 23 -13 0 7 4 12 10 12 10 0 7
-85 -5 -134 -6 -21 -5 -27 4 -22 17 11 18 -49 1 -69 -5 -6 -5 -17 0 -25 8 -12
10 -12 10 4 0 12 5 16 15 12 13 -5 14 -2 4 16 -10 18 -9 20 5 15 11 -5 20 0
27 16 9 21 9 21 4 -3 -3 -14 -7 -31 -9 -38 -1 -7 -8 -18 -14 -24 -23 -23 -12
-27 32 -11 l45 17 -6 83 c-6 78 -5 85 18 110 24 25 24 26 2 14 -20 -10 -23 -9
-23 8 0 11 8 25 18 30 9 6 13 11 8 11 -5 0 -3 7 4 15 10 12 9 15 -5 15 -12 0
-15 5 -11 18 6 15 5 16 -7 1 -12 -16 -14 -15 -34 1 -12 10 -19 21 -15 25 4 5
-1 5 -11 2 -13 -5 -27 3 -48 25 l-29 32 9 -31 c9 -30 8 -31 -12 -24 -11 4 -23
13 -25 19 -2 7 3 10 11 6 12 -4 14 0 10 16 -6 23 -71 72 -85 64 -5 -3 -7 0 -6
7 2 8 -13 21 -32 31 -19 10 -35 24 -35 30 0 7 -11 14 -25 16 -21 3 -16 -5 34
-50z m207 -195 c13 -17 13 -17 -6 -3 -11 8 -22 16 -24 17 -2 2 0 3 6 3 6 0 17
-8 24 -17z m64 -162 c3 -5 2 -12 -3 -15 -5 -3 -9 1 -9 9 0 17 3 19 12 6z m-52
-31 c-3 -12 -8 -19 -11 -16 -5 6 5 36 12 36 2 0 2 -9 -1 -20z"/>
<path d="M5092 4203 c-70 -34 -87 -89 -47 -150 14 -21 23 -23 90 -23 104 0
103 1 108 -227 5 -197 1 -240 -26 -257 -23 -15 -49 23 -62 92 -9 51 -12 55
-50 67 -38 14 -40 13 -83 -22 -39 -32 -43 -39 -38 -67 4 -17 11 -64 17 -104
15 -106 5 -118 -104 -127 -46 -4 -91 -11 -98 -17 -9 -6 5 -7 41 -3 73 7 89 -6
100 -82 4 -32 13 -71 19 -87 9 -23 8 -33 -4 -52 -19 -29 -20 -131 -3 -265 13
-107 4 -149 -35 -166 -19 -9 -15 -11 28 -17 27 -5 58 -14 69 -22 11 -8 40 -14
64 -14 24 0 66 -10 93 -21 27 -12 52 -19 56 -16 13 13 146 -72 184 -118 21
-26 39 -51 39 -55 0 -4 16 -24 35 -44 22 -24 35 -47 35 -64 0 -15 10 -43 21
-62 41 -67 99 -264 108 -368 3 -34 11 -63 16 -64 6 -1 20 20 33 45 24 50 49
60 73 31 10 -12 10 -22 1 -47 -6 -17 -11 -32 -9 -33 1 -1 117 -14 257 -28 140
-15 361 -40 490 -55 129 -16 239 -26 244 -21 4 4 12 142 17 305 5 164 13 325
19 357 15 79 10 88 -42 88 -24 0 -90 4 -148 10 -58 5 -170 14 -250 20 -378 27
-548 44 -585 57 -22 8 -61 21 -88 28 -26 8 -52 17 -58 21 -17 10 11 24 52 24
25 0 43 7 60 26 13 14 39 35 58 46 33 21 35 21 120 5 154 -30 639 -62 618 -40
-4 4 -60 10 -125 14 -140 8 -247 28 -217 40 50 19 348 -3 377 -29 10 -8 15
-19 12 -23 -3 -5 4 -9 15 -9 11 0 22 -4 25 -9 3 -4 19 -11 35 -14 16 -4 52
-27 80 -51 50 -45 59 -49 132 -61 69 -11 71 -18 76 -267 2 -123 8 -267 13
-322 9 -84 8 -100 -5 -110 -8 -6 -17 -27 -21 -46 l-6 -35 21 33 c18 28 26 32
63 32 29 0 49 7 65 22 20 19 34 22 82 20 43 -2 61 1 71 12 13 17 71 20 105 6
14 -5 30 -1 53 12 25 15 44 19 78 15 l44 -5 0 957 c-1 918 -1 955 -18 935 -18
-22 -18 -22 -31 21 -7 23 -11 51 -9 61 3 17 -6 20 -82 26 -126 9 -283 9 -299
-1 -12 -8 -31 -4 -95 18 -18 7 -18 8 0 25 16 17 31 18 137 14 65 -3 122 -9
127 -14 10 -10 195 -2 206 9 4 4 9 50 11 102 l3 96 -28 10 c-16 7 -118 12
-262 13 l-235 1 -3 -73 c-2 -55 -7 -74 -18 -79 -9 -3 -20 0 -24 7 -6 9 -26 13
-63 11 -63 -2 -141 15 -177 39 -47 32 -93 40 -223 40 -131 0 -188 10 -315 57
-39 15 -46 14 -100 -3 -48 -15 -87 -18 -257 -16 -110 1 -223 7 -252 13 -41 8
-61 7 -95 -4 -24 -8 -67 -18 -95 -22 -51 -7 -53 -6 -63 20 -9 22 -15 26 -35
21 -15 -4 -37 0 -53 8 -25 13 -32 13 -60 -1z m272 -129 c33 -13 11 -44 -30
-44 -20 0 -30 30 -13 41 17 10 23 11 43 3z m447 -20 c52 -3 101 -9 109 -14 19
-12 -164 -23 -279 -18 -94 5 -154 20 -121 32 45 15 50 15 291 0z m239 -105
c125 -15 189 -19 265 -14 55 4 162 7 238 7 l137 0 43 -38 c32 -30 61 -45 125
-63 l82 -24 -1 -316 c0 -174 -5 -356 -11 -406 -6 -49 -9 -131 -8 -182 2 -115
0 -117 -138 -109 -53 4 -290 18 -527 31 -533 31 -630 40 -677 59 -25 11 -69
16 -130 16 -51 0 -99 4 -106 8 -25 16 -33 73 -18 132 27 103 36 187 36 319 0
275 40 477 93 469 13 -2 23 -13 28 -29 6 -23 0 -294 -14 -626 -3 -60 0 -96 7
-102 21 -16 78 -21 122 -10 41 11 305 4 599 -16 46 -3 63 -1 50 5 -11 5 -39 9
-62 9 -23 1 -54 6 -70 12 -15 6 -73 13 -128 14 -79 3 -285 20 -291 24 -1 1 -4
10 -7 21 -8 32 15 70 48 79 41 11 58 3 52 -25 -2 -14 1 -24 7 -24 6 0 19 -9
29 -20 22 -26 42 -25 68 1 l20 20 -24 33 c-14 18 -27 43 -29 57 -3 22 -7 24
-45 21 -24 -2 -43 1 -43 6 0 6 -11 13 -24 16 -20 5 -25 14 -30 58 -13 106 -5
235 18 285 15 33 17 53 11 98 l-7 57 -66 31 -67 32 52 53 52 52 88 0 c49 0
162 -9 253 -21z m1421 -289 l-9 -55 -1 65 c-1 39 3 60 8 55 6 -6 6 -33 2 -65z
m-2231 -548 c3 -56 4 -133 2 -172 -3 -59 -7 -70 -24 -76 -26 -8 -38 5 -48 52
-6 28 -5 45 6 67 12 22 14 51 10 123 -4 81 -2 95 12 104 9 5 22 8 27 6 6 -1
12 -48 15 -104z m1620 -346 c60 -10 65 -13 65 -36 0 -23 -4 -25 -58 -31 -32
-4 -60 -9 -64 -12 -3 -3 -29 7 -57 22 -80 43 -79 41 -65 57 14 17 85 17 179 0z
m-1374 -296 c-1 -39 -16 -39 -16 0 0 17 4 30 9 30 4 0 8 -13 7 -30z m889 -181
c-9 -14 -45 -11 -45 4 0 8 3 17 6 20 10 9 46 -12 39 -24z m280 -5 c9 -14 32
-32 51 -40 41 -17 45 -44 10 -79 -38 -38 -93 -47 -255 -41 -153 5 -232 18
-251 41 -15 18 -4 52 19 60 10 3 26 14 36 25 18 20 18 20 37 -11 15 -25 24
-30 51 -27 22 2 35 10 42 26 5 12 19 22 30 22 11 0 29 7 39 15 11 8 36 15 55
15 20 0 43 5 51 10 29 18 67 11 85 -16z m-498 -169 c23 -21 26 -26 13 -34 -22
-15 1 -34 40 -34 16 0 30 -4 30 -8 0 -11 20 -5 59 15 23 12 44 16 65 11 17 -3
51 -9 76 -12 65 -8 73 -17 65 -77 -4 -28 -10 -54 -14 -58 -8 -10 -47 -10 -186
-3 -124 6 -142 15 -186 102 -13 25 -29 47 -36 50 -18 7 -45 52 -38 63 13 20
83 11 112 -15z"/>
<path d="M6095 3793 c-6 -4 -11 -19 -11 -33 0 -14 -4 -41 -8 -61 l-8 -36 84
-20 c83 -22 170 -34 373 -54 113 -11 148 -20 125 -34 -10 -6 -339 -10 -420 -4
-53 3 -172 -18 -181 -32 -17 -27 -9 -38 34 -46 36 -7 42 -12 42 -33 0 -20 -6
-26 -30 -28 -81 -8 -98 -31 -93 -132 2 -27 -5 -59 -15 -80 -17 -34 -17 -34 7
-58 16 -16 34 -24 53 -23 15 1 60 1 98 0 76 -2 122 -1 188 3 31 2 56 -4 90
-22 50 -27 55 -41 16 -50 -21 -6 -20 -7 14 -14 38 -7 240 -26 285 -26 18 0 22
4 17 19 -3 10 -1 39 4 63 6 24 13 125 16 223 7 214 12 298 23 383 6 43 5 65
-2 70 -20 13 -686 37 -701 25z"/>
<path d="M4236 4195 c7 -17 43 -40 50 -32 3 3 -9 15 -25 27 -24 16 -29 17 -25
5z"/>
<path d="M7487 4173 c-11 -10 -8 -51 3 -58 6 -4 10 8 10 29 0 37 -2 41 -13 29z"/>
<path d="M4771 4115 c1 -33 4 -71 9 -85 7 -23 8 -23 15 13 8 43 1 105 -15 121
-7 7 -10 -8 -9 -49z"/>
<path d="M2331 4102 c-7 -2 -22 -13 -32 -23 -11 -11 -25 -16 -35 -12 -27 10
-42 -21 -36 -74 6 -53 28 -86 38 -59 8 22 30 20 46 -3 14 -20 34 -21 351 -24
64 0 261 29 288 43 13 7 39 26 57 41 18 16 41 29 50 29 10 0 25 9 35 20 20 24
18 25 -68 35 -79 10 -111 7 -144 -9 -32 -17 -84 -15 -281 12 -179 24 -251 31
-269 24z"/>
<path d="M3190 4066 c0 -9 5 -16 10 -16 6 0 10 4 10 9 0 6 -4 13 -10 16 -5 3
-10 -1 -10 -9z"/>
<path d="M3734 3721 c4 -6 2 -11 -4 -11 -6 0 -8 -5 -5 -11 7 -10 -47 -4 -90
11 -28 10 -144 -27 -152 -48 -4 -9 -11 -20 -17 -24 -16 -11 14 -29 36 -22 20
6 45 -5 31 -15 -17 -11 -52 -80 -44 -85 5 -3 23 -1 42 4 24 7 35 6 41 -3 13
-20 10 -24 -34 -42 -24 -10 -37 -20 -30 -22 7 -3 25 -16 39 -30 14 -14 18 -23
10 -20 -10 4 -16 -3 -20 -21 -11 -58 -53 -162 -65 -162 -26 0 -10 -80 35 -179
8 -19 16 -45 16 -58 0 -14 6 -23 16 -24 12 0 12 -2 -3 -8 -14 -5 -16 -10 -8
-15 7 -4 16 -4 22 -1 5 3 8 0 5 -7 -6 -18 32 -61 46 -52 7 4 9 3 5 -4 -3 -6 8
-28 26 -49 18 -21 25 -32 15 -24 -23 18 -32 9 -17 -18 8 -16 8 -21 -1 -21 -7
0 -2 -9 10 -19 45 -39 29 -129 -18 -99 -26 16 -40 42 -61 119 l-18 64 -6 -40
c-4 -22 -15 -56 -25 -75 -20 -38 -27 -165 -12 -184 13 -16 8 -66 -6 -66 -7 0
-13 -4 -13 -9 0 -5 21 -12 46 -16 l46 -7 -44 -23 c-23 -12 -44 -30 -46 -39 -2
-9 -8 -16 -14 -16 -7 0 -9 58 -6 174 l3 173 -43 -75 c-23 -41 -45 -86 -48 -99
-4 -13 -10 -26 -15 -29 -5 -3 -9 -14 -9 -24 0 -10 -6 -23 -14 -27 -16 -9 -16
-8 -16 -59 0 -19 -4 -33 -8 -30 -10 6 -24 -83 -48 -294 -9 -80 -18 -149 -21
-154 -4 -5 6 -6 23 -1 16 4 52 9 79 10 83 4 86 5 84 18 -2 6 3 58 10 114 11
86 16 103 33 109 10 3 18 9 16 12 -2 4 -10 19 -17 34 -13 26 -10 59 6 57 4 0
26 -23 48 -51 59 -76 106 -73 50 2 -14 19 -25 41 -25 49 0 10 7 8 25 -9 14
-13 25 -19 25 -14 0 5 27 -20 60 -56 48 -52 61 -62 69 -50 6 8 6 17 2 20 -5 3
-15 19 -24 37 -15 28 -15 32 -1 37 9 3 12 11 8 18 -5 9 -4 10 4 3 6 -6 35 -73
65 -150 34 -90 58 -139 66 -137 8 1 23 -3 35 -11 32 -20 105 -39 126 -32 10 3
23 19 29 36 6 16 20 44 32 60 l22 31 -22 -13 c-11 -8 -21 -17 -21 -21 0 -5 -4
-8 -8 -8 -4 0 -23 37 -42 82 -22 55 -48 98 -79 131 l-46 49 50 -8 c28 -4 69
-7 93 -7 23 1 42 -2 42 -6 0 -4 7 -8 15 -8 9 0 3 11 -17 29 -32 29 -31 36 2
18 13 -7 21 -7 25 0 3 5 0 10 -8 10 -8 0 -17 7 -21 15 -3 8 -12 15 -20 15 -12
0 -13 6 -5 33 11 37 13 87 5 137 -3 19 0 40 5 47 6 6 8 17 5 22 -4 5 -2 13 4
16 6 4 0 15 -15 27 l-26 21 23 16 c32 23 164 158 200 206 30 38 29 38 -16 -8
-26 -26 -51 -45 -56 -42 -6 4 -10 0 -10 -8 0 -19 -27 -30 -34 -14 -3 9 -5 9
-5 0 -1 -15 -31 -18 -31 -3 0 6 -8 10 -19 10 -10 0 -31 12 -47 27 -16 15 -31
28 -34 28 -3 1 -15 4 -27 8 -21 8 -21 9 -6 45 8 20 24 45 36 55 16 13 17 16 5
11 -15 -5 -18 0 -18 24 0 19 7 35 18 42 16 10 16 10 0 20 -27 16 -22 29 18 46
47 20 38 28 -14 14 -22 -5 -84 -12 -136 -14 -84 -3 -96 -2 -96 13 0 13 12 17
69 18 37 2 81 7 95 13 15 5 31 8 36 5 5 -3 11 -1 14 4 3 4 29 9 57 10 52 1 52
1 33 -20 -18 -20 -18 -20 11 -13 17 3 34 11 40 15 18 17 44 9 62 -21 9 -16 21
-30 26 -30 4 0 17 21 28 48 16 35 20 60 16 100 -5 49 -4 52 18 52 26 0 34 -21
35 -90 1 -38 3 -42 11 -22 28 71 21 117 -19 125 -15 4 -43 20 -62 37 -34 30
-92 51 -175 65 -32 5 -38 4 -27 -6 6 -7 12 -20 12 -28 0 -9 21 -31 46 -50 25
-19 50 -43 56 -55 6 -12 16 -24 21 -28 7 -4 4 -16 -7 -32 -18 -28 -11 -27
-273 -30 -27 -1 -38 3 -38 14 0 11 12 15 52 15 57 -1 71 12 52 46 -13 25 1 44
36 53 31 8 33 26 2 26 -28 0 -67 -26 -67 -46 0 -8 -5 -14 -11 -14 -6 0 -9 7
-5 15 7 21 -47 81 -63 70 -8 -4 -11 -20 -9 -36 4 -23 2 -26 -9 -18 -7 6 -27 9
-44 7 -37 -6 -47 12 -25 44 21 30 20 33 -10 47 -25 11 -25 13 -10 30 9 10 16
23 16 29 0 6 9 13 19 17 21 6 51 62 51 94 0 12 6 21 13 21 7 0 20 9 30 20 9
11 23 20 31 20 8 0 17 6 19 13 4 10 6 10 6 0 1 -7 8 -13 16 -13 10 0 15 -10
15 -30 0 -19 5 -30 14 -30 8 0 16 -7 19 -14 15 -39 139 -63 185 -36 13 7 7 9
-25 10 -50 0 -60 24 -18 40 14 5 25 14 25 20 0 6 8 9 18 6 9 -3 23 -2 30 3 8
5 -1 12 -30 21 -24 7 -38 15 -32 17 10 3 55 -10 107 -32 13 -5 16 -3 11 8 -8
21 -48 35 -118 41 -33 3 -61 8 -63 10 -10 9 93 56 123 56 19 0 34 4 34 8 0 13
-200 1 -229 -14 -14 -8 -22 -14 -17 -14 5 0 3 -6 -4 -14 -12 -15 -44 -11 -35
4 3 4 -2 11 -11 14 -8 3 -13 2 -10 -3 5 -8 -15 -18 -58 -27 -20 -5 -104 23
-121 39 -7 7 -4 8 8 4 24 -9 21 0 -4 14 -15 8 -19 8 -15 0z m256 -81 c0 -5 -4
-10 -10 -10 -5 0 -10 5 -10 10 0 6 5 10 10 10 6 0 10 -4 10 -10z m-432 -457
c-3 -33 14 -97 34 -137 11 -22 24 -52 28 -66 4 -14 11 -33 15 -42 4 -11 3 -18
-5 -18 -6 0 -9 4 -6 9 3 5 -1 11 -9 15 -8 3 -15 12 -15 21 0 8 -20 59 -45 112
-49 104 -53 118 -30 109 8 -3 15 -1 15 4 0 6 4 10 9 10 6 0 9 -8 9 -17z m182
2 c7 -8 16 -12 21 -9 5 3 9 -1 9 -9 0 -12 -46 -37 -66 -37 -9 0 -3 39 6 45 6
4 8 11 5 16 -10 15 12 10 25 -6z m51 -198 c10 -23 9 -31 -3 -43 -13 -13 -16
-12 -31 3 -9 10 -19 38 -23 62 l-7 44 26 -19 c14 -10 31 -32 38 -47z m-1 53
c0 -5 -4 -10 -9 -10 -6 0 -13 5 -16 10 -3 6 1 10 9 10 9 0 16 -4 16 -10z m-83
-202 c-3 -8 -6 -5 -6 6 -1 11 2 17 5 13 3 -3 4 -12 1 -19z m163 -1 c0 -7 -11
-14 -25 -15 -16 -1 -25 3 -25 13 0 9 10 15 25 15 14 0 25 -6 25 -13z m-110
-192 c0 -8 -2 -15 -4 -15 -2 0 -6 7 -10 15 -3 8 -1 15 4 15 6 0 10 -7 10 -15z
m25 -25 c3 -5 1 -10 -4 -10 -6 0 -11 5 -11 10 0 6 2 10 4 10 3 0 8 -4 11 -10z
m45 -62 c0 -19 -2 -20 -10 -8 -13 19 -13 30 0 30 6 0 10 -10 10 -22z m-97
-217 c8 -8 4 -11 -14 -11 -20 0 -109 53 -109 65 0 6 112 -43 123 -54z m-262
-65 c-8 -19 -18 -26 -36 -26 -14 0 -25 5 -25 10 0 6 6 10 13 10 8 0 22 9 32
20 23 25 28 20 16 -14z m469 -277 c0 -25 -38 -35 -59 -14 -15 15 -14 18 8 36
26 22 51 11 51 -22z"/>
<path d="M3890 2000 c0 -19 3 -21 12 -12 9 9 9 15 0 24 -9 9 -12 7 -12 -12z"/>
<path d="M4446 3675 c4 -8 8 -15 10 -15 2 0 4 7 4 15 0 8 -4 15 -10 15 -5 0
-7 -7 -4 -15z"/>
<path d="M4532 3677 c-8 -9 -8 -24 -2 -48 5 -19 12 -56 16 -84 l7 -50 17 38
c13 30 15 48 9 85 -14 76 -24 88 -47 59z"/>
<path d="M4435 3561 c-3 -11 1 -34 9 -50 9 -17 16 -41 16 -56 0 -14 4 -25 8
-25 11 0 32 46 32 70 0 26 -17 34 -28 14 -7 -13 -11 -14 -17 -3 -5 7 -4 14 3
17 16 5 15 20 -2 38 -13 12 -15 11 -21 -5z"/>
<path d="M3455 3560 c-3 -5 1 -10 10 -10 9 0 13 5 10 10 -3 6 -8 10 -10 10 -2
0 -7 -4 -10 -10z"/>
<path d="M0 3490 c0 -18 4 -29 10 -25 6 3 10 15 10 25 0 10 -4 22 -10 25 -6 4
-10 -7 -10 -25z"/>
<path d="M4518 3313 c-16 -34 -32 -50 -53 -57 -16 -6 -31 -11 -32 -11 -6 -3
-36 -156 -40 -209 -5 -58 -5 -59 40 -105 25 -25 57 -68 71 -96 l27 -50 -5 133
c-3 73 -2 142 3 155 5 12 10 60 12 107 2 47 7 90 12 97 5 7 5 18 1 25 -5 7 -7
23 -5 36 4 34 -5 27 -31 -25z"/>
<path d="M4603 3353 c-24 -2 -43 -9 -43 -14 0 -28 42 -78 65 -79 6 0 16 12 23
27 13 30 16 74 5 71 -5 -1 -27 -3 -50 -5z"/>
<path d="M213 3239 c4 -87 -38 -103 -171 -64 l-42 13 0 -231 0 -231 120 -118
121 -117 41 15 c26 9 55 12 77 8 l36 -7 -19 21 c-15 17 -16 22 -5 26 8 2 38
12 67 22 37 13 55 15 63 7 6 -6 15 -45 21 -88 9 -72 9 -79 -11 -106 -14 -18
-20 -40 -19 -61 3 -30 0 -33 -27 -36 -16 -1 -86 -11 -155 -22 -69 -11 -142
-21 -163 -22 -20 -2 -37 -7 -37 -12 1 -5 -9 -14 -22 -20 -15 -8 -24 -22 -26
-44 -2 -23 -12 -36 -33 -49 l-29 -17 0 -443 c0 -284 4 -444 10 -448 7 -4 7
-12 0 -25 -5 -10 -10 -32 -10 -48 0 -29 1 -30 45 -28 40 1 45 -1 45 -21 0 -31
-21 -73 -37 -73 -17 0 -17 -17 0 -23 8 -3 7 -10 -7 -26 -27 -30 -37 -26 -24
10 11 32 4 49 -12 33 -7 -7 -9 -70 -8 -164 l3 -153 36 -19 c20 -10 65 -23 100
-29 35 -6 78 -17 95 -25 80 -35 395 -59 468 -34 30 10 41 9 59 -3 29 -18 96
-10 120 14 23 24 48 24 54 0 3 -11 12 -22 20 -25 20 -8 53 11 47 28 -3 8 8 19
28 29 37 18 46 19 131 20 31 0 57 4 57 9 0 14 27 9 40 -7 17 -21 45 -15 45 9
0 22 45 40 121 51 74 9 97 16 123 37 13 10 27 18 32 18 14 0 83 50 101 73 20
26 15 37 -18 37 -29 0 -42 25 -26 51 7 11 17 28 24 39 17 27 4 35 -33 20 -28
-12 -33 -12 -45 5 -8 10 -14 30 -14 43 0 27 -37 119 -57 143 -7 8 -13 35 -13
58 0 34 -4 44 -20 48 -24 6 -26 21 -5 29 22 9 18 24 -5 21 -25 -3 -72 69 -53
81 7 4 15 27 19 50 6 36 10 42 28 40 14 -2 22 3 24 16 3 15 0 18 -17 13 -12
-3 -24 0 -27 5 -8 12 -35 -55 -37 -90 -1 -12 -7 -26 -13 -30 -6 -4 -11 -31
-11 -60 0 -30 -6 -59 -12 -65 -16 -16 -13 -36 9 -85 17 -38 22 -42 39 -32 44
23 82 -18 87 -95 1 -16 7 -50 12 -75 6 -25 7 -49 2 -54 -15 -15 -40 2 -40 28
0 15 -8 30 -21 36 -16 9 -18 14 -8 26 6 8 18 14 25 14 8 0 14 5 14 11 0 6 -7
9 -15 5 -8 -3 -15 -1 -15 4 0 6 -7 10 -15 10 -12 0 -15 -13 -15 -56 0 -30 5
-64 11 -76 9 -18 8 -19 -10 -13 -16 5 -23 1 -31 -19 -12 -31 -13 -32 -44 -5
-19 17 -23 26 -16 43 6 17 4 25 -11 34 -15 9 -17 17 -10 30 6 12 4 29 -9 57
-19 42 -18 55 5 55 22 0 28 19 12 43 -7 12 -17 50 -20 85 -6 51 -4 62 8 62 23
0 18 37 -9 62 -19 18 -25 38 -31 90 -6 61 -5 67 15 78 17 9 26 7 52 -15 35
-30 50 -28 58 6 3 13 16 29 28 35 13 6 18 14 12 20 -9 9 -18 50 -19 92 -1 31
-17 27 -30 -8 -11 -33 -17 -36 -35 -17 -11 10 -10 15 1 25 19 18 7 32 -28 32
-19 0 -29 5 -29 15 0 8 9 15 20 15 11 0 20 4 20 9 0 13 -28 22 -35 11 -4 -6
-15 -10 -26 -10 -23 0 -26 -35 -5 -59 7 -9 17 -37 20 -63 7 -43 5 -48 -12 -48
-21 0 -35 30 -32 68 1 12 -3 22 -9 22 -6 0 -11 9 -11 19 0 14 -10 22 -32 27
-18 3 -43 15 -56 25 -13 10 -50 20 -87 24 -43 5 -69 13 -81 26 -21 23 -34 24
-34 4 0 -15 -4 -17 -55 -19 -41 -1 -49 -41 -11 -56 17 -6 24 -14 20 -25 -9
-22 -19 -19 -48 16 -14 17 -30 28 -36 24 -14 -9 -50 13 -50 30 0 8 -4 15 -10
15 -5 0 -10 -4 -10 -10 0 -5 -24 -10 -54 -10 -63 0 -122 -20 -105 -37 19 -19
-10 -26 -37 -9 -17 12 -29 14 -42 7 -10 -5 -47 -13 -82 -17 l-64 -7 15 23 c11
17 26 23 64 26 90 6 100 9 117 29 15 17 19 18 38 7 16 -10 25 -10 35 -2 8 7
20 10 27 7 7 -2 21 0 32 5 13 7 21 6 26 -2 10 -17 26 -6 44 32 20 40 20 78 -1
210 -14 91 -15 118 -5 170 20 104 21 102 -13 102 -23 1 -31 7 -36 26 -9 32
-58 194 -100 328 -18 56 -35 102 -40 102 -4 0 -5 9 -2 20 4 16 0 20 -21 20
-32 0 -97 26 -108 43 -13 21 -9 50 16 104 l24 52 -31 6 c-55 11 -75 25 -69 49
8 33 21 45 57 52 42 8 52 31 25 59 -11 12 -20 28 -20 37 0 32 -27 42 -68 25
-37 -15 -41 -14 -72 5 -19 11 -44 24 -56 29 -22 8 -23 6 -21 -42z m420 -1071
c11 -9 19 -41 26 -110 20 -179 18 -182 -93 -208 -112 -27 -120 -21 -129 98 -2
29 -8 57 -14 63 -9 9 -79 -3 -198 -35 -77 -21 -102 -20 -115 3 -30 56 -1 94
80 106 121 18 327 67 360 86 22 12 64 11 83 -3z m127 -451 c0 -20 -1 -20 -16
-5 -9 9 -13 21 -9 27 10 16 25 3 25 -22z m-457 7 c6 -7 -14 -44 -24 -44 -9 0
-18 37 -11 44 7 8 27 8 35 0z m-61 -31 c3 -26 7 -28 51 -31 42 -3 49 0 54 17
6 24 28 28 36 8 8 -21 -7 -39 -26 -31 -11 4 -17 1 -17 -7 0 -18 64 -63 68 -49
2 5 10 10 17 10 26 0 26 20 -1 45 -16 15 -21 25 -13 25 19 0 66 -51 71 -76 2
-16 -4 -19 -40 -22 -39 -3 -42 -5 -36 -28 4 -14 2 -24 -5 -24 -6 0 -11 7 -11
15 0 9 -11 20 -24 25 -13 5 -27 14 -31 19 -3 6 -15 11 -26 11 -10 0 -19 5 -19
11 0 5 -4 8 -8 5 -5 -3 -15 4 -22 15 -17 23 -36 25 -48 4 -4 -9 -23 -23 -41
-33 -25 -13 -37 -30 -50 -67 -13 -37 -22 -50 -37 -50 -24 0 -21 28 7 67 11 15
24 41 30 57 6 16 21 37 35 46 13 8 24 21 24 28 0 18 21 37 41 37 12 0 19 -9
21 -27z m352 -37 c9 -14 13 -33 9 -42 -5 -13 -2 -16 13 -12 15 4 20 0 22 -18
2 -32 -15 -40 -39 -18 -21 19 -49 76 -49 100 0 22 26 16 44 -10z m555 -23 c3
-2 -1 -9 -7 -15 -18 -18 -14 -28 11 -28 20 -1 21 -2 4 -14 -17 -13 -17 -15 0
-44 l18 -31 -35 -30 c-43 -37 -56 -38 -64 -5 -5 19 -2 33 12 48 11 11 22 35
24 53 4 28 1 34 -24 42 -27 10 -35 21 -22 34 6 5 75 -2 83 -10z m-123 -7 c18
-14 18 -15 -9 -21 -30 -8 -54 6 -43 24 10 15 28 14 52 -3z m-276 -6 c10 -5 20
-21 24 -34 3 -14 15 -28 26 -31 27 -9 25 -25 -2 -25 -27 0 -88 57 -88 82 0 20
12 23 40 8z m290 -60 c0 -5 -7 -10 -16 -10 -8 0 -12 5 -9 10 3 6 10 10 16 10
5 0 9 -4 9 -10z m-86 -46 c18 -17 21 -50 7 -59 -5 -3 -12 -18 -16 -34 -7 -34
-26 -53 -41 -43 -36 23 -37 90 -1 130 24 26 31 27 51 6z m-204 -24 c0 -5 -7
-10 -15 -10 -8 0 -15 5 -15 10 0 6 7 10 15 10 8 0 15 -4 15 -10z m453 4 c8 -8
-3 -34 -14 -34 -5 0 -9 9 -9 20 0 19 11 26 23 14z m-18 -84 c7 -34 -3 -118
-16 -126 -13 -8 -67 33 -74 57 -8 26 20 86 43 92 35 9 41 6 47 -23z m-919 -8
c-19 -36 -46 -61 -46 -41 0 11 48 69 57 69 2 0 -3 -13 -11 -28z m544 -11 c0
-18 -18 -21 -30 -6 -10 13 -9 15 9 15 11 0 21 -4 21 -9z m-740 -51 c0 -5 -5
-10 -11 -10 -5 0 -7 5 -4 10 3 6 8 10 11 10 2 0 4 -4 4 -10z m1009 -64 c7 -8
15 -31 18 -53 8 -53 37 -107 67 -127 27 -17 34 -44 15 -63 -7 -7 3 -23 36 -54
32 -31 47 -54 51 -80 6 -33 4 -38 -26 -53 -35 -17 -50 -14 -50 10 0 11 6 13
20 9 13 -4 20 -2 20 7 0 28 -19 39 -86 50 -79 12 -96 27 -83 72 8 27 6 34 -17
52 -25 20 -25 23 -11 50 11 23 12 45 6 103 -4 41 -6 78 -3 83 8 13 30 10 43
-6z m-673 -51 c-15 -36 -66 -105 -77 -105 -19 0 22 87 52 112 18 15 35 28 36
28 2 0 -3 -16 -11 -35z m-288 -258 c4 -22 -27 -35 -39 -16 -5 8 -9 20 -9 27 0
20 44 10 48 -11z m756 -32 c15 -2 33 -8 38 -13 13 -13 1 -52 -16 -52 -17 0
-69 40 -62 48 3 3 -2 11 -12 19 -16 14 -16 14 3 7 11 -4 33 -8 49 -9z m236
-46 c0 -5 -7 -9 -15 -9 -15 0 -20 12 -9 23 8 8 24 -1 24 -14z m-600 -29 c0 -5
-4 -10 -10 -10 -5 0 -10 5 -10 10 0 6 5 10 10 10 6 0 10 -4 10 -10z m390 -27
c0 -33 -24 -25 -28 10 -3 21 0 26 12 21 9 -3 16 -17 16 -31z m680 -43 c0 -5
-12 -10 -26 -10 -14 0 -32 -7 -40 -15 -17 -17 -34 -20 -34 -6 0 13 50 39 78
40 12 1 22 -3 22 -9z m-300 -60 c0 -5 -4 -10 -10 -10 -5 0 -10 5 -10 10 0 6 5
10 10 10 6 0 10 -4 10 -10z m-432 -117 c2 -8 -6 -13 -22 -13 -25 0 -33 10 -19
24 10 10 36 3 41 -11z"/>
<path d="M1120 990 c0 -5 7 -10 16 -10 8 0 12 5 9 10 -3 6 -10 10 -16 10 -5 0
-9 -4 -9 -10z"/>
<path d="M3403 3175 c-10 -10 -9 -15 4 -19 21 -8 27 -1 16 17 -6 12 -10 13
-20 2z"/>
<path d="M4406 2800 c6 -119 -9 -176 -100 -358 -79 -158 -90 -188 -80 -227 8
-33 15 -31 42 10 20 32 52 48 52 26 0 -15 30 -21 51 -11 30 17 23 3 -28 -52
-30 -32 -38 -45 -23 -36 15 10 51 16 90 17 36 1 72 2 80 3 40 3 48 -3 53 -39
2 -21 14 -87 25 -148 25 -139 60 -359 64 -405 3 -34 2 -35 -54 -55 -31 -11
-57 -23 -58 -28 0 -4 2 -34 6 -67 6 -59 7 -60 43 -65 20 -4 52 -15 71 -24 33
-17 66 -18 55 -2 -8 13 -42 195 -42 221 0 14 -9 81 -21 150 -11 69 -23 141
-25 160 -3 19 -10 53 -16 75 -6 22 -14 86 -17 142 l-7 101 -28 6 c-38 7 -38
33 2 82 l30 39 -20 16 c-23 19 -61 14 -61 -6 0 -14 -21 -25 -48 -25 -9 0 -29
-7 -44 -14 -16 -8 -28 -10 -28 -5 0 9 40 29 70 33 8 2 17 14 20 27 4 14 13 23
22 23 14 -1 14 3 1 43 -9 26 -19 40 -23 34 -8 -14 -30 55 -30 95 0 23 2 26 10
14 8 -12 10 -8 10 15 0 17 2 75 6 131 6 98 6 103 -21 148 -15 25 -29 46 -31
46 -2 0 -1 -40 2 -90z"/>
<path d="M4544 2708 c11 -65 35 -326 41 -458 3 -74 9 -148 12 -163 4 -26 6
-27 22 -13 21 19 82 21 99 4 15 -15 16 -24 -13 165 -40 254 -56 316 -107 424
-34 71 -64 94 -54 41z"/>
<path d="M4551 2234 c0 -11 3 -14 6 -6 3 7 2 16 -1 19 -3 4 -6 -2 -5 -13z"/>
<path d="M4629 2042 c-1 -4 0 -21 1 -38 1 -18 -3 -35 -8 -38 -22 -13 22 -121
69 -171 15 -16 35 -48 45 -70 17 -43 43 -67 59 -57 5 4 14 7 19 7 5 0 13 12
17 27 4 15 17 39 28 54 28 36 27 53 -2 26 -13 -12 -27 -22 -32 -22 -22 0 -48
42 -86 139 -23 58 -48 113 -56 123 -15 17 -52 31 -54 20z"/>
<path d="M1022 1988 c5 -15 28 -18 29 -3 0 6 -7 12 -17 13 -10 3 -15 -1 -12
-10z"/>
<path d="M2655 1945 c13 -35 28 -189 28 -277 0 -52 -19 -108 -38 -108 -6 0
-18 12 -25 26 -12 22 -50 53 -50 40 0 -2 11 -23 24 -46 20 -36 100 -100 111
-88 6 6 25 220 25 282 0 62 -20 117 -61 166 -17 20 -20 21 -14 5z"/>
<path d="M3664 1908 c3 -13 6 -27 6 -32 0 -12 29 13 41 36 8 16 6 18 -22 18
-28 0 -31 -3 -25 -22z"/>
<path d="M3839 1910 c-44 -12 -69 -30 -69 -48 0 -10 -7 -27 -15 -38 -14 -19
-14 -18 -15 4 0 12 -4 22 -8 22 -16 0 -42 -36 -42 -58 0 -12 -4 -22 -9 -22
-10 0 -23 33 -19 46 4 13 -40 84 -52 84 -5 0 -10 -14 -10 -30 0 -17 -10 -44
-22 -60 -24 -33 -38 -38 -38 -15 0 8 -9 15 -20 15 -11 0 -20 -4 -20 -9 0 -22
-39 -20 -81 4 -103 59 -148 71 -129 35 6 -10 33 -27 60 -37 28 -10 50 -21 50
-25 0 -12 71 -30 96 -24 22 6 27 0 56 -61 18 -38 37 -71 43 -75 22 -16 25 11
6 55 -17 39 -18 47 -5 58 11 9 17 9 29 -1 12 -10 19 -10 27 -2 7 7 21 12 32
12 11 0 30 12 43 28 18 21 22 23 23 10 0 -22 38 -24 64 -5 14 10 15 17 6 41
-12 33 7 72 42 85 29 11 9 20 -23 11z"/>
<path d="M3712 1898 c-14 -14 -16 -38 -3 -38 10 0 26 39 19 46 -2 2 -10 -2
-16 -8z"/>
<path d="M3415 1870 c10 -11 20 -20 22 -20 1 0 3 9 3 20 0 14 -7 20 -22 20
-20 0 -21 -1 -3 -20z"/>
<path d="M3460 1880 c0 -18 41 -51 58 -48 10 2 18 14 19 28 3 25 3 25 -7 3
-12 -29 -18 -29 -30 2 -9 24 -40 36 -40 15z"/>
<path d="M3850 1871 c-7 -15 -7 -21 0 -21 12 0 25 28 17 36 -3 3 -10 -4 -17
-15z"/>
<path d="M3886 1863 c-6 -14 -5 -15 5 -6 7 7 10 15 7 18 -3 3 -9 -2 -12 -12z"/>
<path d="M4635 1790 c3 -36 13 -99 21 -140 9 -41 17 -88 19 -105 2 -27 19
-121 31 -182 3 -16 11 -23 29 -23 19 0 33 13 60 55 20 32 35 68 35 86 0 26 2
28 19 20 25 -14 41 6 48 57 5 36 3 40 -28 52 -26 11 -34 11 -37 1 -3 -9 -10
-8 -29 4 l-24 16 5 -33 5 -33 -29 32 c-26 29 -42 69 -64 163 -4 14 -20 41 -37
60 l-31 35 7 -65z"/>
<path d="M3905 1819 c-20 -20 -20 -20 5 -11 13 5 26 14 28 20 6 18 -11 13 -33
-9z"/>
<path d="M4033 1833 c9 -2 25 -2 35 0 9 3 1 5 -18 5 -19 0 -27 -2 -17 -5z"/>
<path d="M3962 1781 c-18 -11 0 -25 56 -44 38 -13 44 -13 49 -1 14 37 -65 71
-105 45z"/>
<path d="M3021 1751 c-7 -5 -12 -14 -10 -20 2 -6 10 -2 17 9 14 22 13 23 -7
11z"/>
<path d="M3156 1741 c-3 -5 0 -11 8 -14 15 -6 26 1 26 15 0 11 -27 10 -34 -1z"/>
<path d="M3850 1715 c-7 -9 -11 -18 -8 -20 3 -3 11 1 18 10 7 9 11 18 8 20 -3
3 -11 -1 -18 -10z"/>
<path d="M5604 1705 c-9 -14 -14 -28 -11 -31 3 -3 13 8 22 25 19 37 12 41 -11
6z"/>
<path d="M3253 1698 c-12 -6 -23 -23 -26 -42 -15 -88 -27 -139 -33 -145 -3 -3
-3 15 1 42 6 36 4 47 -6 47 -16 0 -89 -87 -89 -106 0 -7 -12 -22 -27 -34 -25
-19 -73 -82 -73 -94 0 -14 28 -4 45 14 19 22 45 27 45 9 0 -6 -13 -24 -29 -40
-36 -36 -78 -39 -90 -6 -8 20 -10 21 -16 3 -5 -11 -3 -21 5 -26 7 -4 9 -16 5
-29 -8 -28 15 -28 40 -1 10 11 24 20 30 20 7 0 18 7 25 15 7 8 23 15 36 15 24
0 33 23 14 35 -5 3 -10 10 -10 16 0 9 58 49 73 49 4 0 7 -19 7 -42 0 -54 14
-79 28 -52 5 11 13 35 17 54 4 19 13 42 21 51 18 21 64 163 64 199 0 17 -4 30
-10 30 -5 0 -10 7 -10 15 0 17 -6 18 -37 3z"/>
<path d="M3437 1692 c-22 -24 -21 -32 2 -32 10 0 22 7 25 16 14 37 0 46 -27
16z"/>
<path d="M3651 1686 c9 -19 20 -26 41 -26 47 0 30 32 -25 45 -27 7 -27 7 -16
-19z"/>
<path d="M3060 1686 c0 -24 17 -28 23 -6 3 13 0 20 -9 20 -8 0 -14 -6 -14 -14z"/>
<path d="M3101 1663 c-6 -20 -9 -39 -6 -41 16 -16 73 48 60 68 -15 24 -44 10
-54 -27z"/>
<path d="M3500 1662 c0 -18 11 -38 30 -57 36 -34 38 -22 8 40 -25 52 -38 57
-38 17z"/>
<path d="M3881 1669 c-12 -12 -20 -23 -18 -25 8 -9 57 19 57 33 0 19 -13 16
-39 -8z"/>
<path d="M5018 1678 c-16 -5 -28 -14 -28 -18 0 -5 14 -4 30 1 17 6 30 15 30
20 0 5 -1 9 -2 8 -2 0 -15 -5 -30 -11z"/>
<path d="M5217 1633 c-54 -82 -50 -94 39 -112 71 -15 218 -11 235 6 9 9 7 17
-5 34 -13 19 -23 23 -58 20 -24 -1 -51 -7 -61 -13 -13 -6 -35 -6 -67 2 -42 10
-53 9 -72 -4 -43 -30 -40 -16 6 29 48 46 55 65 33 83 -10 9 -22 -1 -50 -45z"/>
<path d="M2772 1663 c-6 -10 -13 -38 -17 -62 -4 -24 -14 -59 -21 -77 -13 -30
-12 -34 1 -34 8 0 15 7 15 15 0 19 4 19 41 -1 17 -8 34 -13 37 -9 12 12 7 86
-6 94 -7 4 -12 12 -10 17 3 11 -19 74 -26 74 -3 0 -9 -8 -14 -17z"/>
<path d="M3345 1668 c-11 -28 -10 -131 1 -135 7 -2 11 22 12 72 1 72 -3 89
-13 63z"/>
<path d="M4290 1644 c0 -6 7 -19 16 -30 14 -18 14 -18 3 6 -14 31 -19 36 -19
24z"/>
<path d="M3009 1622 c-15 -15 -16 -21 -2 -54 16 -41 31 -48 39 -20 3 9 12 30
20 46 17 33 17 33 -16 40 -16 3 -31 -1 -41 -12z"/>
<path d="M3395 1620 c-10 -16 5 -90 25 -122 10 -17 20 -26 23 -21 5 8 11 102
8 136 -1 19 -45 24 -56 7z"/>
<path d="M3725 1606 c31 -14 50 -11 40 5 -4 5 -21 9 -38 9 l-32 -1 30 -13z"/>
<path d="M4334 1612 c3 -6 2 -13 -3 -17 -15 -9 9 -67 25 -61 15 6 38 -29 29
-44 -3 -5 8 -24 24 -42 27 -30 30 -31 31 -12 0 12 -7 27 -15 34 -8 6 -17 22
-21 33 -4 12 -17 36 -30 53 -13 17 -24 36 -24 42 0 6 -5 14 -12 18 -6 4 -8 3
-4 -4z"/>
<path d="M2897 1597 c-4 -10 -7 -26 -7 -35 1 -15 2 -15 11 1 6 10 9 25 7 35
-3 16 -4 15 -11 -1z"/>
<path d="M3960 1603 c0 -6 74 -33 90 -33 14 0 30 18 30 34 0 1 -27 2 -60 1
-33 0 -60 -1 -60 -2z"/>
<path d="M2235 1583 c4 -10 14 -41 21 -69 8 -29 28 -82 45 -118 31 -67 57
-190 46 -219 -5 -13 -12 -14 -36 -7 -24 7 -36 4 -56 -12 -31 -24 -37 -20 -41
25 -1 18 -10 53 -18 77 -9 25 -16 57 -16 71 0 15 -7 32 -15 39 -8 7 -15 18
-15 25 0 7 -8 21 -17 32 -10 10 -14 14 -10 7 4 -6 14 -43 21 -80 8 -38 19 -90
27 -115 17 -62 8 -83 -32 -74 -22 5 -36 2 -50 -11 -13 -11 -23 -14 -29 -8 -10
10 -37 95 -62 191 -7 26 -25 55 -47 75 -20 18 -27 23 -17 11 20 -24 36 -160
17 -149 -5 4 -12 2 -16 -4 -3 -6 3 -14 14 -18 21 -7 20 -8 -6 -45 -14 -20 -30
-37 -34 -37 -12 0 -35 39 -50 85 -7 22 -18 47 -25 55 -24 31 -44 80 -44 110 0
28 -2 30 -27 24 -16 -4 -33 -13 -40 -21 -6 -8 -17 -12 -23 -8 -19 11 -2 -33
21 -56 10 -10 30 -36 43 -58 14 -22 34 -42 45 -46 11 -3 23 -16 26 -28 15 -51
37 -88 50 -83 7 2 19 -2 26 -10 10 -13 10 -17 -1 -24 -24 -15 -7 -20 78 -22
49 -2 81 -7 78 -13 -1 -5 13 -18 33 -28 22 -11 37 -14 39 -7 2 6 13 15 24 21
19 10 20 9 14 -15 -8 -32 21 -50 36 -22 8 14 11 15 24 1 20 -19 58 -19 74 0
20 24 41 19 34 -9 -4 -19 4 -37 36 -78 23 -29 50 -58 60 -65 61 -43 272 -84
529 -104 194 -14 821 -7 937 12 73 11 85 11 107 -3 13 -9 27 -30 30 -47 9 -45
24 -38 33 16 10 52 2 48 128 77 64 15 102 33 92 43 -2 2 -21 -3 -41 -11 -21
-9 -57 -16 -82 -16 -24 0 -54 -5 -66 -12 -12 -7 -58 -13 -102 -14 -44 0 -132
-6 -195 -13 -150 -15 -522 -17 -680 -2 -146 14 -354 46 -425 66 -163 45 -205
60 -255 86 -71 38 -102 84 -97 143 5 57 9 62 74 91 46 22 53 28 43 40 -7 8
-25 15 -41 15 -38 0 -39 31 -1 59 22 16 23 20 9 21 -10 0 -27 -4 -37 -10 -16
-9 -24 1 -64 83 -25 51 -46 97 -46 102 0 31 -23 82 -41 93 -20 13 -21 12 -14
-5z"/>
<path d="M4167 1580 c3 -11 7 -20 9 -20 2 0 4 9 4 20 0 11 -4 20 -9 20 -5 0
-7 -9 -4 -20z"/>
<path d="M3481 1496 c2 -67 -1 -99 -10 -110 -7 -9 -11 -25 -8 -36 6 -22 -18
-53 -37 -47 -13 4 -43 124 -33 134 11 11 18 -3 24 -46 10 -71 33 -47 25 27 -4
36 -7 42 -28 42 -16 0 -28 9 -39 30 -18 34 -15 33 -49 20 -18 -6 -28 -21 -37
-52 -6 -24 -18 -56 -26 -72 -14 -26 -14 -30 2 -39 12 -7 15 -17 11 -41 -10
-52 2 -60 101 -60 l88 -1 1 -70 c0 -38 -4 -83 -9 -98 -6 -20 -6 -36 2 -50 18
-35 0 -81 -32 -85 -29 -4 -70 15 -62 28 3 4 -4 6 -15 3 -29 -8 -25 12 8 37 31
25 42 55 31 88 -5 13 -5 22 1 22 6 0 10 4 10 10 0 8 -42 76 -56 89 -10 10 -54
-44 -54 -67 0 -19 -4 -23 -20 -19 -16 4 -19 1 -14 -17 3 -14 -1 -27 -10 -35
-9 -8 -16 -23 -16 -35 0 -20 -17 -46 -30 -46 -8 0 -6 118 4 175 5 28 17 65 28
83 25 42 18 68 -13 50 -17 -10 -23 -10 -26 0 -9 24 -32 13 -30 -15 2 -20 -3
-28 -18 -31 -40 -8 -57 -34 -51 -75 13 -82 -39 -237 -80 -237 -18 0 -28 38
-16 64 12 26 49 149 58 192 8 42 -13 55 -37 23 -10 -13 -23 -43 -28 -66 -9
-33 -37 -94 -57 -122 -2 -1 -7 0 -12 3 -6 3 -4 32 5 73 7 38 14 77 14 88 0 10
5 25 12 33 9 11 7 17 -8 29 -18 13 -22 12 -42 -12 -28 -32 -29 -66 -3 -85 25
-18 25 -31 1 -61 -10 -13 -16 -30 -14 -36 3 -7 1 -13 -4 -13 -5 0 -15 6 -22
13 -10 10 -11 5 -6 -24 6 -32 4 -37 -17 -44 -12 -4 -38 -8 -57 -9 -38 -1 -57
-26 -20 -26 12 0 41 -9 63 -19 67 -32 274 -61 471 -68 160 -5 475 7 573 23
l33 5 -23 19 c-18 15 -20 19 -8 23 57 19 57 18 33 29 -14 7 -22 20 -23 37 -2
82 -7 108 -22 131 -10 13 -18 32 -18 41 0 9 -7 22 -15 29 -21 18 -19 31 16
105 35 74 43 82 59 58 17 -27 6 47 -13 89 -9 18 -18 43 -22 54 -6 23 -35 36
-53 25 -5 -3 -20 -37 -31 -76 -12 -38 -30 -81 -40 -94 l-19 -25 -67 33 c-59
29 -65 35 -52 48 12 12 19 13 37 3 18 -10 24 -9 31 1 11 18 11 18 -2 79 -6 27
-16 51 -22 51 -7 1 -37 0 -68 -1 -32 -1 -60 3 -63 9 -4 6 -14 11 -22 11 -13 0
-15 -15 -13 -94z m155 -141 c20 -17 35 -23 49 -18 43 14 59 9 68 -22 5 -16 13
-43 19 -60 36 -105 60 -303 39 -329 -13 -16 -195 -33 -232 -21 -20 7 -21 8 -5
17 17 9 16 11 -2 29 -17 15 -21 33 -22 106 -6 243 5 323 45 323 6 0 25 -11 41
-25z m-272 -41 c23 -9 20 -34 -3 -34 -22 0 -35 15 -26 30 7 12 8 12 29 4z
m-34 -306 c0 -4 -14 -8 -31 -8 -17 0 -28 4 -24 10 7 11 55 9 55 -2z"/>
<path d="M3666 1180 c-2 -8 -7 -37 -11 -63 -5 -41 -3 -54 17 -83 24 -35 48
-45 48 -19 0 8 -4 15 -10 15 -5 0 -10 9 -10 20 0 13 7 20 20 20 24 0 24 -1 5
41 -22 52 -53 87 -59 69z"/>
<path d="M3695 963 c2 -16 4 -31 4 -35 1 -11 39 -10 46 1 5 9 -36 61 -48 61
-3 0 -4 -12 -2 -27z"/>
<path d="M4121 1580 c0 -8 4 -22 9 -30 12 -18 12 -2 0 25 -6 13 -9 15 -9 5z"/>
<path d="M3890 1565 c0 -8 9 -15 20 -15 21 0 27 -14 11 -25 -13 -7 19 -95 34
-95 18 0 115 -100 115 -118 0 -10 9 -30 20 -47 11 -16 20 -45 20 -62 0 -18 6
-50 14 -70 8 -21 18 -53 23 -72 4 -19 14 -36 22 -39 18 -6 8 45 -39 188 -12
36 -24 81 -27 100 -3 19 -10 38 -16 42 -8 5 -6 13 6 26 9 10 17 23 17 28 0 6
6 18 13 28 11 15 17 17 35 7 27 -15 28 -3 3 53 -11 26 -20 36 -25 28 -13 -21
-26 -13 -26 15 0 25 -1 25 -18 10 -29 -26 -100 -22 -144 8 -42 29 -58 31 -58
10z m258 -87 c-7 -19 -38 -22 -38 -4 0 10 9 16 21 16 12 0 19 -5 17 -12z"/>
<path d="M2942 1527 c-12 -24 -22 -54 -22 -65 0 -11 -4 -24 -10 -27 -5 -3 -10
-15 -10 -26 0 -15 5 -18 24 -13 14 3 29 0 39 -10 10 -10 18 -12 22 -6 3 5 1
10 -4 10 -17 0 -13 48 6 76 13 20 14 33 7 61 -13 51 -27 51 -52 0z"/>
<path d="M3700 1553 c2 -28 27 -114 34 -116 8 -2 34 80 36 108 0 6 -16 12 -35
13 -19 2 -35 -1 -35 -5z"/>
<path d="M2470 1522 c0 -11 4 -31 9 -44 6 -13 12 -40 16 -60 5 -30 10 -38 28
-38 12 -1 42 -11 66 -24 40 -21 42 -23 21 -29 -14 -3 -38 2 -61 13 l-38 20 2
-65 c1 -42 6 -65 14 -65 6 0 14 4 18 9 3 5 20 13 38 16 17 4 49 16 69 26 21
11 46 19 57 19 17 0 37 20 86 85 8 11 24 32 35 47 27 36 25 46 -3 19 -20 -18
-28 -20 -51 -11 -15 5 -54 10 -86 10 -69 0 -152 29 -192 68 -27 25 -28 25 -28
4z"/>
<path d="M4190 1519 c0 -5 5 -7 10 -4 6 3 10 8 10 11 0 2 -4 4 -10 4 -5 0 -10
-5 -10 -11z"/>
<path d="M4286 1505 c-11 -8 -32 -15 -46 -15 -31 0 -41 -7 -33 -26 6 -16 64
-8 75 12 5 7 17 10 28 7 22 -6 23 -3 14 21 -7 19 -13 20 -38 1z"/>
<path d="M7260 1487 c-7 -18 -15 -36 -18 -40 -2 -5 5 -4 16 2 30 16 55 14 48
-4 -6 -17 9 -21 19 -4 4 6 -3 18 -15 26 -16 11 -19 18 -10 23 9 6 7 11 -7 18
-16 9 -21 6 -33 -21z"/>
<path d="M2085 1480 c10 -11 20 -20 23 -20 3 0 -3 9 -13 20 -10 11 -20 20 -23
20 -3 0 3 -9 13 -20z"/>
<path d="M4473 1489 c-23 -8 -32 -39 -13 -39 6 0 10 -8 10 -18 0 -11 9 -27 20
-37 20 -18 20 -17 20 38 0 62 -5 69 -37 56z"/>
<path d="M1495 1480 c-19 -8 -19 -9 3 -9 12 -1 22 4 22 9 0 6 -1 10 -2 9 -2 0
-12 -4 -23 -9z"/>
<path d="M5430 1475 c0 -8 -8 -19 -17 -22 -14 -5 -12 -8 11 -14 19 -5 42 -2
69 8 43 18 40 22 -30 37 -27 6 -33 4 -33 -9z"/>
<path d="M6748 1449 c-35 -26 -35 -35 -2 -43 31 -8 32 -8 44 33 10 37 -2 40
-42 10z"/>
<path d="M2877 1453 c-4 -3 -7 -11 -7 -17 0 -6 5 -5 12 2 6 6 9 14 7 17 -3 3
-9 2 -12 -2z"/>
<path d="M1500 1418 c0 -18 2 -20 10 -8 7 11 12 12 20 4 9 -9 9 -14 1 -18 -16
-10 -14 -32 4 -50 12 -12 13 -19 4 -33 -9 -16 -4 -25 32 -61 30 -31 44 -39 50
-30 6 9 13 8 28 -6 12 -11 21 -24 21 -31 0 -22 41 -55 69 -55 16 0 45 -7 66
-16 26 -10 41 -12 48 -5 12 12 10 14 -74 111 -31 36 -62 75 -68 88 -7 13 -18
21 -26 18 -7 -2 -16 2 -19 9 -3 8 -12 12 -19 9 -9 -3 -16 3 -20 16 -3 13 -16
22 -37 26 -20 4 -36 16 -42 30 -15 31 -48 32 -48 2z m120 -158 c0 -5 -5 -10
-11 -10 -5 0 -7 5 -4 10 3 6 8 10 11 10 2 0 4 -4 4 -10z"/>
<path d="M7231 1408 c-12 -20 1 -32 34 -32 52 0 62 40 11 46 -24 3 -37 -1 -45
-14z"/>
<path d="M7480 1416 c0 -7 -7 -19 -15 -26 -8 -7 -12 -16 -10 -21 3 -4 -10 -30
-28 -56 -19 -26 -42 -69 -52 -95 -10 -27 -22 -48 -26 -48 -5 0 -9 -7 -9 -15 0
-18 -20 -57 -35 -67 -5 -4 2 -8 18 -8 15 0 36 9 47 20 11 11 26 20 34 20 7 0
32 20 55 45 l41 45 0 110 c0 67 -4 110 -10 110 -5 0 -10 -6 -10 -14z"/>
<path d="M2835 1389 c-4 -11 -4 -23 0 -27 7 -7 25 17 25 36 0 20 -18 14 -25
-9z"/>
<path d="M4275 1400 c-8 -13 14 -42 26 -34 5 3 9 14 9 25 0 20 -24 26 -35 9z"/>
<path d="M4339 1295 c9 -30 17 -51 19 -46 5 14 -17 89 -27 95 -4 3 -1 -19 8
-49z"/>
<path d="M7160 1317 c0 -8 -9 -22 -20 -32 -11 -10 -20 -23 -20 -28 0 -6 9 -2
20 8 11 10 20 13 20 7 0 -6 7 -9 15 -6 20 8 20 -23 0 -43 -21 -20 -15 -48 10
-48 15 0 21 8 23 30 2 16 12 41 22 55 9 14 21 35 24 48 7 21 5 22 -21 16 -15
-4 -30 -8 -32 -10 -2 -2 -12 1 -22 7 -14 7 -19 6 -19 -4z"/>
<path d="M3920 1298 c0 -15 5 -30 10 -33 13 -8 13 25 0 45 -8 12 -10 9 -10
-12z"/>
<path d="M6980 1310 c0 -5 5 -10 10 -10 6 0 10 5 10 10 0 6 -4 10 -10 10 -5 0
-10 -4 -10 -10z"/>
<path d="M2241 1236 c-10 -12 -8 -13 9 -9 25 7 37 23 17 23 -8 0 -20 -6 -26
-14z"/>
<path d="M5066 1221 c-10 -11 -31 -23 -48 -26 -18 -4 -33 -16 -38 -31 -5 -13
-14 -24 -20 -24 -14 0 -86 -112 -101 -157 -13 -41 -3 -53 46 -53 44 1 61 19
85 91 12 35 38 84 58 108 44 53 72 93 72 104 0 15 -37 6 -54 -12z"/>
<path d="M4508 1225 c-8 -9 12 -55 24 -55 4 0 8 6 8 13 0 18 -24 50 -32 42z"/>
<path d="M7047 1168 c24 -27 48 -72 57 -110 5 -22 1 -32 -15 -45 -12 -10 -33
-28 -48 -40 l-26 -21 24 -26 24 -25 -24 -9 c-13 -5 -40 -13 -59 -17 -98 -19
-110 -25 -106 -48 5 -36 -27 -49 -128 -53 -95 -4 -133 6 -168 43 -56 58 -109
131 -121 167 -12 36 -17 41 -48 44 l-34 3 25 -20 c22 -18 23 -23 13 -40 -7
-12 -13 -27 -13 -35 0 -8 -5 -16 -10 -18 -6 -2 -12 -14 -15 -27 -6 -34 -15
-39 -30 -17 -23 30 -49 13 -41 -27 15 -74 13 -82 -19 -82 -25 0 -32 5 -41 35
-6 19 -18 36 -26 38 -19 4 -39 -40 -27 -59 24 -38 -4 -85 -75 -126 -34 -20
-154 -42 -246 -46 -78 -4 -83 -3 -62 11 12 8 22 20 22 27 0 25 38 48 67 40 27
-8 54 -7 62 1 2 2 4 16 5 31 1 23 -6 31 -34 45 -35 16 -35 16 -55 -13 -26 -37
-45 -43 -81 -24 -16 8 -34 15 -41 15 -18 0 -107 -40 -114 -52 -5 -7 -18 -2
-39 15 -36 30 -47 32 -110 14 -25 -7 -69 -10 -100 -7 -30 3 -84 2 -120 -1 -71
-7 -104 5 -115 41 -8 26 -22 25 -69 -8 -26 -18 -43 -38 -48 -60 -5 -17 -13
-32 -19 -32 -7 0 -9 9 -6 21 3 12 -3 37 -14 58 -10 19 -19 41 -19 48 0 40 -84
-36 -95 -84 -13 -62 -29 -39 -39 57 -3 25 -5 46 -5 48 -2 8 -22 -1 -45 -23
-17 -16 -26 -34 -26 -55 0 -20 -5 -30 -15 -30 -11 0 -15 11 -15 39 0 22 -4 42
-9 46 -14 8 -43 -25 -36 -42 3 -9 -4 -24 -17 -35 l-23 -20 47 -43 c58 -52 180
-94 363 -125 181 -30 322 -35 547 -16 221 18 233 20 483 80 99 24 198 48 220
52 27 6 43 17 52 34 12 22 10 27 -12 45 -34 28 -32 46 16 101 23 26 46 58 51
70 6 12 19 25 29 27 15 4 23 -5 39 -40 11 -24 34 -62 51 -84 25 -32 30 -46 25
-70 -5 -26 -2 -31 21 -40 15 -6 79 -15 142 -20 63 -6 118 -12 122 -15 14 -8
-3 -42 -26 -52 -13 -6 -34 -25 -46 -41 -13 -17 -31 -31 -42 -31 -24 0 -57 -17
-81 -42 -11 -12 -26 -18 -39 -14 -12 3 -42 -6 -71 -20 -29 -15 -59 -23 -71
-20 -12 3 -37 1 -56 -5 -19 -6 -70 -12 -114 -15 -44 -2 -91 -8 -105 -13 -25
-9 -224 -30 -270 -29 -14 1 -169 -2 -345 -6 -222 -6 -374 -5 -495 4 -216 15
-217 15 -315 29 -191 28 -283 44 -320 56 -163 55 -228 85 -289 134 -45 36 -66
39 -66 12 0 -24 -75 -113 -104 -124 -15 -6 -24 -3 -33 9 -10 14 -15 15 -27 5
-20 -17 -74 14 -78 43 -4 25 18 84 40 108 20 24 22 106 2 118 -20 13 -57 13
-65 0 -3 -5 -10 -44 -15 -87 -6 -43 -16 -100 -24 -128 l-13 -50 -49 -1 c-27
-1 -73 3 -103 8 -53 10 -53 10 -47 41 30 164 27 186 -27 189 -42 2 -53 1 -112
-11 -28 -6 -63 -7 -79 -3 -17 5 -57 4 -89 0 -41 -6 -64 -5 -73 3 -8 6 -36 13
-64 15 -38 3 -51 0 -59 -13 -8 -15 -11 -15 -33 -1 -27 18 -97 17 -142 -1 -20
-8 -32 -8 -41 -1 -19 16 -28 -5 -13 -30 8 -12 19 -18 30 -14 12 3 22 -4 32
-24 18 -35 56 -49 73 -26 10 14 15 13 40 -10 15 -15 39 -29 53 -32 56 -14 121
-37 126 -46 11 -17 -19 -28 -56 -21 -19 3 -57 7 -85 7 -37 1 -50 5 -50 16 0 9
9 15 23 14 29 -1 28 10 -4 31 -22 14 -28 15 -35 4 -5 -8 -9 -20 -9 -28 0 -9
-8 -11 -24 -7 -18 4 -25 1 -29 -15 -6 -21 -8 -21 -194 -15 -103 4 -276 11
-383 17 -107 6 -322 16 -478 24 -263 12 -317 18 -281 29 270 86 349 123 399
186 49 62 33 81 -30 35 -20 -14 -47 -25 -66 -25 -20 0 -43 -10 -62 -26 -27
-24 -92 -53 -167 -74 -16 -5 -55 -17 -85 -28 -30 -11 -77 -22 -105 -26 -27 -4
-63 -11 -80 -16 -90 -26 -213 -50 -310 -60 -60 -7 -159 -18 -220 -25 -80 -10
-140 -11 -220 -5 -60 5 -184 10 -274 11 -164 1 -332 12 -364 25 -16 6 -17 -14
-17 -270 l0 -276 3593 2 c1975 1 3543 3 3482 5 -532 11 -1061 34 -1098 49 -23
9 -21 18 11 51 36 37 35 57 -3 61 -16 2 -34 8 -40 14 -11 11 84 8 335 -12 74
-6 152 -8 173 -4 51 8 184 -5 166 -17 -18 -11 71 -11 130 0 51 10 130 3 109
-10 -8 -6 1 -9 27 -9 30 0 36 3 25 10 -11 7 2 10 45 8 43 -2 59 -7 57 -16 -2
-10 17 -13 75 -12 43 0 92 -2 108 -4 17 -3 75 -8 129 -11 55 -3 102 -6 105 -7
3 0 21 0 39 1 l32 1 0 319 0 319 -25 4 c-32 7 -94 -38 -95 -68 0 -26 -18 -44
-45 -44 -29 0 -103 78 -111 118 -9 47 12 90 49 100 19 5 37 20 47 37 13 23 25
31 51 33 33 3 48 -6 87 -53 7 -8 19 -15 27 -15 12 0 15 16 15 76 l0 77 -80 -6
c-47 -4 -82 -2 -85 3 -3 6 -19 10 -34 10 -52 0 -89 19 -96 50 -4 16 -19 47
-35 68 -22 31 -37 41 -64 44 -22 2 -33 0 -30 -7 3 -5 -1 -2 -9 8 -8 9 -20 17
-27 17 -9 0 -6 -8 7 -22z m-117 -342 c0 -2 -7 -6 -15 -10 -8 -3 -15 -1 -15 4
0 6 7 10 15 10 8 0 15 -2 15 -4z m-3670 -214 c0 -16 13 -39 31 -58 17 -18 28
-37 25 -43 -10 -15 -43 -14 -53 2 -11 17 -32 98 -33 126 0 20 2 21 15 11 8 -7
15 -24 15 -38z m3884 -27 c27 -8 71 -15 98 -15 54 0 67 -22 25 -41 -19 -9 -23
-18 -23 -56 2 -96 -68 -81 -139 30 -65 102 -60 112 39 82z m-3663 -40 c0 -5
-9 -11 -21 -13 -20 -3 -27 8 -13 22 10 9 34 3 34 -9z m729 -77 c0 -11 -27 -10
-74 4 l-41 13 30 5 c31 6 85 -8 85 -22z m-850 -46 c0 -11 -48 -13 -55 -2 -4 6
7 10 24 10 17 0 31 -4 31 -8z m149 -8 c2 -2 -27 -4 -65 -4 -48 0 -64 3 -54 10
13 8 108 3 119 -6z m59 -5 c-12 -7 -24 -7 -35 0 -15 9 -12 10 17 10 29 0 32
-1 18 -10z m327 -181 c105 -7 209 -12 233 -13 40 0 56 -15 32 -30 -6 -4 -8
-10 -5 -15 2 -4 -9 -13 -26 -20 -24 -10 -108 -12 -382 -7 -194 4 -401 11 -462
16 -60 5 -166 12 -235 15 -235 12 -285 17 -267 31 25 18 109 28 118 14 4 -7
15 -8 30 -3 13 4 30 7 38 5 7 -1 10 2 6 8 -3 6 1 11 10 11 9 0 13 -5 10 -10
-4 -6 17 -10 57 -10 35 -1 101 -3 147 -7 53 -3 97 -1 120 6 87 29 243 31 576
9z m3528 -105 c-7 -2 -19 -2 -25 0 -7 3 -2 5 12 5 14 0 19 -2 13 -5z"/>
<path d="M5220 1143 c-17 -19 -37 -47 -43 -62 -7 -14 -23 -37 -37 -51 -14 -14
-42 -60 -64 -102 -30 -61 -43 -78 -60 -78 -16 0 -11 -6 21 -26 31 -18 47 -22
60 -16 27 14 173 2 173 -14 0 -21 40 -28 58 -10 20 20 12 27 -40 37 -132 23
-161 29 -167 35 -12 12 41 43 93 55 40 9 62 9 85 1 48 -17 64 -6 34 24 -13 13
-30 24 -38 24 -14 0 -20 30 -17 80 0 8 -5 18 -11 22 -7 5 -3 8 11 8 14 0 21 4
17 11 -4 6 -19 7 -36 4 -24 -5 -28 -4 -23 9 4 11 0 16 -11 16 -14 0 -15 3 -5
15 7 8 25 15 41 15 37 0 44 14 14 28 -21 10 -27 7 -55 -25z"/>
<path d="M2865 1110 c-3 -5 -2 -10 4 -10 5 0 13 5 16 10 3 6 2 10 -4 10 -5 0
-13 -4 -16 -10z"/>
<path d="M4390 1110 c0 -5 5 -10 11 -10 5 0 7 5 4 10 -3 6 -8 10 -11 10 -2 0
-4 -4 -4 -10z"/>
<path d="M1350 1086 c0 -13 9 -35 20 -49 11 -14 20 -32 20 -41 0 -9 5 -16 10
-16 15 0 7 59 -13 98 -21 38 -37 42 -37 8z"/>
<path d="M1671 1064 c0 -11 3 -14 6 -6 3 7 2 16 -1 19 -3 4 -6 -2 -5 -13z"/>
<path d="M4415 1070 c3 -5 8 -10 11 -10 2 0 4 5 4 10 0 6 -5 10 -11 10 -5 0
-7 -4 -4 -10z"/>
<path d="M7486 1072 c-2 -4 -1 -14 5 -22 7 -12 9 -10 9 8 0 23 -5 28 -14 14z"/>
<path d="M0 1050 c0 -22 7 -25 29 -11 16 10 6 31 -15 31 -8 0 -14 -9 -14 -20z"/>
<path d="M2706 1052 c-3 -6 -1 -14 5 -17 15 -10 25 3 12 16 -7 7 -13 7 -17 1z"/>
<path d="M2720 1010 c0 -5 5 -10 10 -10 6 0 10 5 10 10 0 6 -4 10 -10 10 -5 0
-10 -4 -10 -10z"/>
<path d="M5350 989 c0 -5 5 -7 10 -4 6 3 10 8 10 11 0 2 -4 4 -10 4 -5 0 -10
-5 -10 -11z"/>
<path d="M2291 976 c-20 -11 -21 -14 -6 -19 21 -9 46 5 37 20 -5 8 -13 8 -31
-1z"/>
<path d="M5642 978 c-29 -5 -50 -14 -47 -19 4 -5 1 -9 -4 -9 -27 0 -7 -17 33
-29 54 -16 88 -47 66 -61 -8 -6 -21 -10 -27 -10 -18 0 -16 -17 4 -28 11 -7 21
-5 31 4 7 8 30 14 50 14 l36 0 -53 51 c-43 41 -50 53 -41 65 7 7 19 14 26 14
8 0 14 5 14 10 0 12 -15 11 -88 -2z"/>
<path d="M6875 956 c-22 -16 -14 -32 20 -38 15 -2 20 3 20 21 0 30 -15 36 -40
17z"/>
<path d="M5447 926 c-4 -10 -1 -13 8 -9 8 3 12 9 9 14 -7 12 -11 11 -17 -5z"/>
<path d="M4594 884 c3 -9 6 -21 6 -27 0 -16 20 14 20 31 0 6 -7 12 -16 12 -11
0 -14 -5 -10 -16z"/>
<path d="M5384 855 c-27 -29 -28 -34 -13 -43 9 -6 34 -9 55 -7 93 11 124 17
130 27 5 8 -6 9 -35 5 -54 -7 -74 -1 -92 28 l-14 24 -31 -34z"/>
<path d="M5815 860 c-3 -5 -1 -10 4 -10 6 0 11 5 11 10 0 6 -2 10 -4 10 -3 0
-8 -4 -11 -10z"/>
<path d="M4935 850 c3 -5 17 -10 31 -10 14 0 22 4 19 10 -3 6 -17 10 -31 10
-14 0 -22 -4 -19 -10z"/>
<path d="M5585 840 c-7 -12 2 -12 30 0 19 8 19 9 -2 9 -12 1 -25 -3 -28 -9z"/>
<path d="M6090 802 c0 -5 -18 -18 -40 -31 l-40 -22 22 -30 c25 -34 41 -36 66
-11 13 13 17 29 14 60 -2 23 -8 42 -13 42 -5 0 -9 -4 -9 -8z"/>
<path d="M6126 731 c-4 -5 -2 -12 3 -15 5 -4 12 -2 15 3 4 5 2 12 -3 15 -5 4
-12 2 -15 -3z"/>
<path d="M3660 715 c-17 -21 -4 -129 20 -150 9 -9 24 -15 31 -13 8 2 13 -3 11
-10 -1 -8 2 -11 7 -8 5 4 12 21 16 39 3 17 11 44 17 59 7 19 7 37 -2 62 -11
33 -15 36 -50 36 -21 0 -43 -6 -50 -15z"/>
<path d="M1385 670 c-8 -13 15 -13 35 0 12 8 11 10 -7 10 -12 0 -25 -4 -28
-10z"/>
<path d="M1090 615 c-11 -13 -10 -14 4 -9 9 3 16 10 16 15 0 13 -6 11 -20 -6z"/>
<path d="M3954 559 c-6 -8 -8 -25 -4 -39 6 -21 8 -22 14 -8 4 9 6 27 4 39 -2
18 -5 20 -14 8z"/>
<path d="M6035 160 c-3 -5 32 -8 78 -8 62 -1 76 1 58 9 -27 11 -129 10 -136
-1z"/>
<path d="M6568 143 c7 -3 16 -2 19 1 4 3 -2 6 -13 5 -11 0 -14 -3 -6 -6z"/>
<path d="M7263 3 c37 -2 97 -2 135 0 37 2 6 3 -68 3 -74 0 -105 -1 -67 -3z"/>
</g>
</svg>
